<?xml version="1.0" encoding="UTF-8"?>
<svg xmlns="http://www.w3.org/2000/svg" xmlns:xlink="http://www.w3.org/1999/xlink" viewBox="0 0 1920 250">
  <defs>
    <style>
      .cls-1 {
        fill: none;
      }

      .cls-2 {
        fill: #fff;
        mix-blend-mode: color-dodge;
        opacity: .04;
      }

      .cls-3 {
        clip-path: url(#clippath);
      }

      .cls-4 {
        fill: #02887b;
      }

      .cls-5 {
        fill: #109d91;
      }

      .cls-6 {
        isolation: isolate;
      }
    </style>
    <clipPath id="clippath">
      <rect class="cls-1" y="-1460" width="1920" height="1080"/>
    </clipPath>
  </defs>
  <g class="cls-6">
    <g id="moon">
      <g class="cls-3">
        <circle class="cls-2" cx="960.3" cy="-815.19" r="993.42"/>
      </g>
    </g>
    <g id="title">
      <path class="cls-4" d="M1240.55,250C849.12,96.01,421.91,34.8,0,58.6V250H1240.55Z"/>
      <path class="cls-4" d="M1064.69,250C1334.56,96.01,1629.11,34.8,1920,58.6V250h-855.31Z"/>
    </g>
    <g id="_分離模式" data-name="分離模式">
      <path class="cls-5" d="M1920,172.41C1289.93,37.28,632.52,31.03,0,154.16v95.84H1920v-77.59Z"/>
      <path class="cls-5" d="M1405.81,102.41s16.62-26.15,10.84-31.41c-5.78-5.26-14.04,13.06-14.04,13.06,0,0,11.81-29.57-6.67-31.89-18.48-2.32-33.32,32-33.32,32,0,0-2.63-10.17-9.26-6.36-6.63,3.81,9.26,25.89,9.26,25.89l43.18-1.3Z"/>
      <g>
        <path class="cls-5" d="M529.09,39.4c-4.18,.23-7.89,.88-11.19,1.87v15.45l-4.59-13.72c-3.03,1.36-5.64,3.03-7.88,4.95l4.06,16.8s-4.16-6.79-7.97-12.82c-12.35,15.07-8.92,38.25-8.92,38.25l80.41-6.06s0-47.09-43.92-44.72Z"/>
        <path class="cls-5" d="M588.42,83.9s7.46-44,16.77-43.06c9.31,.94-2.32,32.3-2.32,32.3,0,0,6.92-15.46,13.21-10.77,6.29,4.69-4.54,32.77-4.54,32.77l-23.12-11.23Z"/>
      </g>
      <g>
        <path class="cls-5" d="M1254.45,95.86l1.92-47.39s-12.34-4.29-8.74-10.81c3.6-6.51,9.56,1,9.56,1,0,0,.95-13.56,10.99-10.97,10.05,2.59-5.25,18.02-5.25,18.02v50.13h-8.49Z"/>
        <path class="cls-5" d="M1280.53,107.85l1.92-47.39s-12.34-4.29-8.74-10.81c3.6-6.51,9.56,1,9.56,1,0,0,.95-13.56,10.99-10.97,10.05,2.59-5.25,18.02-5.25,18.02v50.13h-8.49Z"/>
      </g>
    </g>
  </g>
</svg>