<svg width="1440" height="188" viewBox="0 0 1440 188" fill="none" xmlns="http://www.w3.org/2000/svg">
<g clip-path="url(#clip0_64_3975)">
<path d="M1440 129.307C967.448 27.9594 474.39 23.2719 0 115.619V187.499H1440V129.307Z" fill="#109D91"/>
<path d="M1054.36 76.8074C1054.36 76.8074 1066.82 57.1949 1062.49 53.2499C1058.15 49.3049 1051.96 63.0449 1051.96 63.0449C1051.96 63.0449 1060.81 40.8674 1046.95 39.1274C1033.09 37.3874 1021.97 63.1274 1021.97 63.1274C1021.97 63.1274 1019.99 55.4999 1015.02 58.3574C1010.05 61.2149 1021.97 77.7749 1021.97 77.7749L1054.35 76.7999L1054.36 76.8074Z" fill="#109D91"/>
<path d="M396.818 29.5493C393.683 29.7218 390.9 30.2093 388.425 30.9518V42.5393L384.983 32.2493C382.71 33.2693 380.752 34.5218 379.072 35.9618L382.117 48.5618C382.117 48.5618 378.997 43.4693 376.14 38.9468C366.877 50.2493 369.45 67.6343 369.45 67.6343L429.758 63.0893C429.758 63.0893 429.758 27.7718 396.818 29.5493Z" fill="#109D91"/>
<path d="M441.315 62.9243C441.315 62.9243 446.91 29.9243 453.893 30.6293C460.875 31.3343 452.153 54.8543 452.153 54.8543C452.153 54.8543 457.343 43.2593 462.06 46.7768C466.778 50.2943 458.655 71.3543 458.655 71.3543L441.315 62.9318V62.9243Z" fill="#109D91"/>
<path d="M940.838 71.8946L942.278 36.3521C942.278 36.3521 933.023 33.1346 935.723 28.2446C938.423 23.3621 942.893 28.9946 942.893 28.9946C942.893 28.9946 943.605 18.8246 951.135 20.7671C958.673 22.7096 947.198 34.2821 947.198 34.2821V71.8796H940.83L940.838 71.8946Z" fill="#109D91"/>
<path d="M960.398 80.8868L961.837 45.3443C961.837 45.3443 952.583 42.1268 955.283 37.2368C957.983 32.3543 962.453 37.9868 962.453 37.9868C962.453 37.9868 963.165 27.8168 970.695 29.7593C978.233 31.7018 966.758 43.2743 966.758 43.2743V80.8718H960.39L960.398 80.8868Z" fill="#109D91"/>
</g>
<defs>
<clipPath id="clip0_64_3975">
<rect width="1440" height="187.5" fill="white"/>
</clipPath>
</defs>
</svg>
