<?xml version="1.0" encoding="UTF-8"?>
<svg xmlns="http://www.w3.org/2000/svg" viewBox="0 0 1920 250">
  <defs>
    <style>
      .cls-1 {
        fill: #02887b;
      }

      .cls-2, .cls-3 {
        fill: #006060;
      }

      .cls-4 {
        fill: #c294b5;
      }

      .cls-5 {
        fill: #8292c9;
      }

      .cls-6 {
        fill: #6e2148;
        opacity: .2;
      }

      .cls-6, .cls-3, .cls-7 {
        mix-blend-mode: multiply;
      }

      .cls-3, .cls-7 {
        opacity: .3;
      }

      .cls-8 {
        isolation: isolate;
      }
    </style>
  </defs>
  <g class="cls-8">
    <g id="website">
      <path class="cls-1" d="M679.45,250C1070.88,96.01,1498.09,34.8,1920,58.6V250H679.45Z"/>
      <path class="cls-1" d="M855.31,250C585.44,96.01,290.89,34.8,0,58.6V250H855.31Z"/>
      <path class="cls-2" d="M1920,172.41C1289.93,37.28,632.52,31.03,0,154.16v95.84H1920v-77.59Z"/>
      <g>
        <path class="cls-3" d="M216.79,89.71c-2.22-2.55-10.06-5.97-22.47-5.97s-22.47,2.46-22.47,5.49,10.06,5.49,22.47,5.49,24.38-2.81,22.47-5.01Z"/>
        <g>
          <path class="cls-4" d="M214.66,89.07c-5.76,2.45-18.21,5.53-39.62,.69-1.58-.36-2.59-1.84-2.29-3.36,.83-4.14,3.51-11.76,12.14-14.21,2.03-.58,4.39-.87,7.14-.77,13,.5,20.62,7.54,24.15,11.95,.39,.49,.64,1.05,.74,1.61,.31,1.63-.54,3.35-2.27,4.09Z"/>
          <path class="cls-6" d="M214.66,89.07c-5.76,2.45-18.21,5.53-39.62,.69-1.58-.36-2.59-1.84-2.29-3.36,.83-4.14,3.51-11.76,12.14-14.21,.16,7.21,4.49,18.59,32.03,12.79,.31,1.63-.54,3.35-2.27,4.09Z"/>
        </g>
      </g>
      <g>
        <path class="cls-3" d="M359.17,152.48c-2.21-2.54-10-5.94-22.34-5.94s-22.34,2.44-22.34,5.46,10,5.46,22.34,5.46,24.24-2.8,22.34-4.98Z"/>
        <g>
          <path class="cls-5" d="M357.06,151.84c-5.73,2.43-18.11,5.49-39.4,.69-1.57-.35-2.57-1.83-2.27-3.34,.82-4.11,3.49-11.69,12.07-14.13,2.02-.58,4.37-.87,7.1-.76,12.92,.5,20.5,7.49,24.01,11.89,.39,.49,.64,1.04,.74,1.6,.31,1.62-.54,3.33-2.25,4.06Z"/>
          <path class="cls-6" d="M357.06,151.84c-5.73,2.43-18.11,5.49-39.4,.69-1.57-.35-2.57-1.83-2.27-3.34,.82-4.11,3.49-11.69,12.07-14.13,.16,7.17,4.46,18.49,31.85,12.72,.31,1.62-.54,3.33-2.25,4.06Z"/>
        </g>
      </g>
      <g>
        <g>
          <ellipse class="cls-3" cx="694.37" cy="111.17" rx="9.77" ry="3.11"/>
          <ellipse class="cls-3" cx="660.71" cy="122.05" rx="14.19" ry="4.52"/>
        </g>
        <g class="cls-7">
          <path class="cls-2" d="M567.47,126.83c0,4.11-11.98,7.44-26.77,7.44s-26.77-3.33-26.77-7.44,11.98-7.44,26.77-7.44,26.77,3.33,26.77,7.44Z"/>
        </g>
      </g>
    </g>
  </g>
</svg>