<svg width="1440" height="139" viewBox="0 0 1440 139" fill="none" xmlns="http://www.w3.org/2000/svg">
<g clip-path="url(#clip0_58_3000)">
<path d="M0 127.5C454.357 52.2525 950.25 33.7574 1440 45.3899V138.922H0V127.5Z" fill="#02887B"/>
<path d="M1179.5 48.0967L1180.85 14.8193C1180.85 14.8193 1172.19 11.8043 1174.72 7.22925C1177.24 2.65425 1181.43 7.93425 1181.43 7.93425C1181.43 7.93425 1182.1 -1.59075 1189.15 0.231752C1196.2 2.05425 1185.46 12.8918 1185.46 12.8918V48.0967H1179.49H1179.5Z" fill="#02887B"/>
<path d="M1177.51 27.9066C1177.51 27.9066 1169.77 28.8966 1171.17 20.9916C1178.29 19.7541 1177.51 27.9066 1177.51 27.9066Z" fill="#02887B"/>
<path d="M1187.74 25.7767C1187.74 25.7767 1184.07 16.6117 1195.17 15.9517C1198.98 24.2767 1187.74 25.7767 1187.74 25.7767Z" fill="#02887B"/>
<path d="M798.046 61.7644C798.046 61.7644 785.581 42.1519 789.916 38.2069C794.251 34.2619 800.446 48.0019 800.446 48.0019C800.446 48.0019 791.588 25.8244 805.448 24.0844C819.308 22.3444 830.438 48.0844 830.438 48.0844C830.438 48.0844 832.411 40.4569 837.383 43.3144C842.356 46.1719 830.438 62.7319 830.438 62.7319L798.053 61.7569L798.046 61.7644Z" fill="#02887B"/>
</g>
<defs>
<clipPath id="clip0_58_3000">
<rect width="1440" height="139" fill="white" transform="matrix(-1 0 0 1 1440 0)"/>
</clipPath>
</defs>
</svg>
