<svg width="1440" height="178" viewBox="0 0 1440 178" fill="none" xmlns="http://www.w3.org/2000/svg">
<g clip-path="url(#clip0_380_2540)">
<path d="M1440 166.5C985.643 91.2525 489.75 72.7574 0 84.3899V177.922H1440V166.5Z" fill="#02887B"/>
<path d="M1258.72 109.065C1261.85 109.237 1264.63 109.725 1267.11 110.467V122.055L1270.55 111.765C1272.82 112.785 1274.78 114.037 1276.46 115.477L1273.42 128.077C1273.42 128.077 1276.54 122.985 1279.39 118.462C1288.66 129.765 1286.08 147.15 1286.08 147.15L1225.78 142.605C1225.78 142.605 1225.78 107.287 1258.72 109.065Z" fill="#02887B"/>
<path d="M1214.22 138.306C1214.22 138.306 1208.62 105.306 1201.64 106.011C1194.66 106.716 1203.38 130.236 1203.38 130.236C1203.38 130.236 1198.19 118.641 1193.47 122.159C1188.76 125.676 1196.88 146.736 1196.88 146.736L1214.22 138.314V138.306Z" fill="#02887B"/>
</g>
<g clip-path="url(#clip1_380_2540)">
<g style="mix-blend-mode:soft-light" opacity="0.61">
<path d="M260.005 10.051C260.005 6.71556 257.326 4 254.003 4C250.679 4 248 6.7008 248 10.051C248 13.4012 250.679 16.102 254.003 16.102C257.326 16.102 260.005 13.4012 260.005 10.051Z" fill="#F4AA1C"/>
</g>
<path d="M257.282 10.051C257.282 8.22097 255.818 6.74512 254.003 6.74512C252.187 6.74512 250.723 8.22097 250.723 10.051C250.723 11.8811 252.187 13.3569 254.003 13.3569C255.818 13.3569 257.282 11.8811 257.282 10.051Z" fill="#F4AA1C"/>
<g style="mix-blend-mode:soft-light" opacity="0.61">
<path d="M279.431 32.7496C273.81 27.0841 273.81 17.8984 279.431 12.2328C285.051 6.56722 294.163 6.56722 299.783 12.2328C305.404 17.8984 305.404 27.0841 299.783 32.7496C294.163 38.4152 285.051 38.4152 279.431 32.7496Z" fill="#F4AA1C"/>
</g>
<path d="M281.717 22.4923C281.717 18.109 285.245 14.5522 289.594 14.5522C293.942 14.5522 297.47 18.109 297.47 22.4923C297.47 26.8756 293.942 30.4324 289.594 30.4324C285.245 30.4324 281.717 26.8756 281.717 22.4923Z" fill="#F4AA1C"/>
</g>
<g style="mix-blend-mode:multiply" opacity="0.3">
<path d="M268.33 155C264.283 155 261.002 156.044 261.002 157.333C261.002 158.621 264.283 159.665 268.33 159.665C272.377 159.665 275.658 158.621 275.658 157.333C275.658 156.044 272.377 155 268.33 155Z" fill="#006060"/>
</g>
<g style="mix-blend-mode:multiply" opacity="0.3">
<path d="M243.092 162.103C237.215 162.103 232.45 163.621 232.45 165.493C232.45 167.365 237.215 168.883 243.092 168.883C248.97 168.883 253.735 167.365 253.735 165.493C253.735 163.621 248.97 162.103 243.092 162.103Z" fill="#006060"/>
</g>
<g style="mix-blend-mode:multiply" opacity="0.3">
<path d="M173.155 169.078C173.155 172.16 164.17 174.658 153.077 174.658C141.985 174.658 133 172.16 133 169.078C133 165.995 141.985 163.498 153.077 163.498C164.17 163.498 173.155 165.995 173.155 169.078Z" fill="#006060"/>
</g>
<g style="mix-blend-mode:soft-light" opacity="0.61">
<path d="M1166.65 39.6906C1166.65 32.7704 1172.26 27.1605 1179.18 27.1605C1186.1 27.1605 1191.71 32.7704 1191.71 39.6906C1191.71 46.6108 1186.1 52.2207 1179.18 52.2207C1172.26 52.2207 1166.65 46.6108 1166.65 39.6906Z" fill="#F4AA1C"/>
</g>
<path d="M1172.32 39.6961C1172.32 35.9029 1175.38 32.8403 1179.18 32.8403C1182.97 32.8403 1186.03 35.9029 1186.03 39.6961C1186.03 43.4894 1182.97 46.5519 1179.18 46.5519C1175.38 46.5519 1172.32 43.4894 1172.32 39.6961Z" fill="#F4AA1C"/>
<g style="mix-blend-mode:soft-light" opacity="0.61">
<path d="M1136.55 50.0499C1136.55 47.2517 1138.82 44.9819 1141.62 44.9819C1144.42 44.9819 1146.69 47.2517 1146.69 50.0499C1146.69 52.8482 1144.42 55.1179 1141.62 55.1179C1138.82 55.1179 1136.55 52.8482 1136.55 50.0499Z" fill="#F4AA1C"/>
</g>
<path d="M1141.62 52.8171C1140.09 52.8171 1138.85 51.5782 1138.85 50.0499C1138.85 48.5216 1140.09 47.2827 1141.62 47.2827C1143.15 47.2827 1144.39 48.5216 1144.39 50.0499C1144.39 51.5782 1143.15 52.8171 1141.62 52.8171Z" fill="#F4AA1C"/>
<g style="mix-blend-mode:soft-light" opacity="0.61">
<path d="M1131 5.06801C1131 2.26972 1133.27 0 1136.07 0C1138.87 0 1141.14 2.26972 1141.14 5.06801C1141.14 7.86629 1138.87 10.136 1136.07 10.136C1133.27 10.136 1131 7.86629 1131 5.06801Z" fill="#F4AA1C"/>
</g>
<path d="M1133.3 5.06798C1133.3 3.52892 1134.54 2.30078 1136.07 2.30078C1137.59 2.30078 1138.84 3.54446 1138.84 5.06798C1138.84 6.59149 1137.59 7.83517 1136.07 7.83517C1134.54 7.83517 1133.3 6.59149 1133.3 5.06798Z" fill="#F4AA1C"/>
<defs>
<clipPath id="clip0_380_2540">
<rect width="1440" height="126.922" fill="white" transform="translate(0 51)"/>
</clipPath>
<clipPath id="clip1_380_2540">
<rect width="56" height="33" fill="white" transform="matrix(-1 0 0 1 304 4)"/>
</clipPath>
</defs>
</svg>
