<?xml version="1.0" encoding="UTF-8"?>
<svg xmlns="http://www.w3.org/2000/svg" xmlns:xlink="http://www.w3.org/1999/xlink" viewBox="0 0 1920 450">
  <defs>
    <style>
      .cls-1 {
        fill: none;
      }

      .cls-2 {
        clip-path: url(#clippath);
      }

      .cls-3 {
        fill: #02887b;
      }

      .cls-4 {
        fill: #ada3c9;
      }

      .cls-5 {
        fill: #109d91;
      }

      .cls-6 {
        fill: #9687bb;
      }

      .cls-7 {
        fill: url(#_未命名漸層_384-11);
      }

      .cls-7, .cls-8, .cls-9, .cls-10, .cls-11, .cls-12, .cls-13, .cls-14, .cls-15, .cls-16, .cls-17, .cls-18 {
        mix-blend-mode: overlay;
      }

      .cls-8 {
        fill: url(#_未命名漸層_384-10);
      }

      .cls-9 {
        fill: url(#_未命名漸層_384-12);
      }

      .cls-10 {
        fill: url(#_未命名漸層_384-8);
      }

      .cls-11 {
        fill: url(#_未命名漸層_384-9);
      }

      .cls-12 {
        fill: url(#_未命名漸層_384-7);
      }

      .cls-13 {
        fill: url(#_未命名漸層_384-3);
      }

      .cls-14 {
        fill: url(#_未命名漸層_384-5);
      }

      .cls-15 {
        fill: url(#_未命名漸層_384-6);
      }

      .cls-16 {
        fill: url(#_未命名漸層_384-2);
      }

      .cls-17 {
        fill: url(#_未命名漸層_384-4);
        filter: url(#outer-glow-15);
      }

      .cls-18 {
        fill: url(#_未命名漸層_384);
      }

      .cls-19 {
        isolation: isolate;
      }
    </style>
    <clipPath id="clippath">
      <rect class="cls-1" width="1920" height="450"/>
    </clipPath>
    <linearGradient id="_未命名漸層_384" data-name="未命名漸層 384" x1="4473.02" y1="42.18" x2="4481.99" y2="42.18" gradientTransform="translate(4545.27) rotate(-180) scale(1 -1)" gradientUnits="userSpaceOnUse">
      <stop offset="0" stop-color="#c4e6f6"/>
      <stop offset=".4" stop-color="#efd5a2"/>
      <stop offset=".7" stop-color="#d1cbe5"/>
      <stop offset="1" stop-color="#e4c1db"/>
    </linearGradient>
    <linearGradient id="_未命名漸層_384-2" data-name="未命名漸層 384" x1="4138.16" y1="259.2" x2="4147.13" y2="259.2" xlink:href="#_未命名漸層_384"/>
    <linearGradient id="_未命名漸層_384-3" data-name="未命名漸層 384" x1="1506.4" y1="225" x2="1515.37" y2="225" gradientTransform="matrix(1, 0, 0, 1, 0, 0)" xlink:href="#_未命名漸層_384"/>
    <linearGradient id="_未命名漸層_384-4" data-name="未命名漸層 384" x1="1847.75" x2="1856.72" gradientTransform="matrix(1, 0, 0, 1, 0, 0)" xlink:href="#_未命名漸層_384"/>
    <filter id="outer-glow-15" filterUnits="userSpaceOnUse">
      <feOffset dx="0" dy="0"/>
      <feGaussianBlur result="blur" stdDeviation="5.67"/>
      <feFlood flood-color="#231815" flood-opacity=".75"/>
      <feComposite in2="blur" operator="in"/>
      <feComposite in="SourceGraphic"/>
    </filter>
    <linearGradient id="_未命名漸層_384-5" data-name="未命名漸層 384" x1="4390.5" y1="209.08" x2="4399.47" y2="209.08" xlink:href="#_未命名漸層_384"/>
    <linearGradient id="_未命名漸層_384-6" data-name="未命名漸層 384" x1="86.77" y1="260.69" x2="74.44" y2="273.02" gradientTransform="matrix(1, 0, 0, 1, 0, 0)" xlink:href="#_未命名漸層_384"/>
    <linearGradient id="_未命名漸層_384-7" data-name="未命名漸層 384" x1="159.16" y1="286.4" x2="159.16" y2="323.34" gradientTransform="matrix(1, 0, 0, 1, 0, 0)" xlink:href="#_未命名漸層_384"/>
    <linearGradient id="_未命名漸層_384-8" data-name="未命名漸層 384" x1="77.18" y1="120.36" x2="120.44" y2="120.36" gradientTransform="matrix(1, 0, 0, 1, 0, 0)" xlink:href="#_未命名漸層_384"/>
    <linearGradient id="_未命名漸層_384-9" data-name="未命名漸層 384" x1="1839.63" y1="176.55" x2="1858.53" y2="195.45" gradientTransform="matrix(1, 0, 0, 1, 0, 0)" xlink:href="#_未命名漸層_384"/>
    <linearGradient id="_未命名漸層_384-10" data-name="未命名漸層 384" x1="1774.44" y1="251.88" x2="1783.41" y2="251.88" gradientTransform="matrix(1, 0, 0, 1, 0, 0)" xlink:href="#_未命名漸層_384"/>
    <linearGradient id="_未命名漸層_384-11" data-name="未命名漸層 384" x1="1796.26" y1="299.97" x2="1839.51" y2="299.97" gradientTransform="matrix(1, 0, 0, 1, 0, 0)" xlink:href="#_未命名漸層_384"/>
    <linearGradient id="_未命名漸層_384-12" data-name="未命名漸層 384" x1="1644.01" y1="247.28" x2="1668.09" y2="273.42" gradientTransform="matrix(1, 0, 0, 1, 0, 0)" xlink:href="#_未命名漸層_384"/>
  </defs>
  <g class="cls-19">
    <g id="website">
      <g class="cls-2">
        <path class="cls-6" d="M550,342c-.7-11.17-6.4-22.4-16.74-28.94-10.34-6.54-25.48-7.47-35.76-.86,.24-10.35-3.55-26.13-12.64-32.72-9.09-6.6-21.98-9.35-33.52-7.2,10.23-37.31-.34-79.89-32.21-106.17-31.86-26.28-86.71-36.64-121.52-13.41-3.51-11.93-14.41-21.97-27.82-25.62-13.41-3.66-28.87-.81-39.47,7.26-2.35-10.95-10.1-20.92-20.86-26.83-10.76-5.91-25.68-8.32-37.94-5.4-3.96-25.48-20.03-41.74-40.04-60.53-16.26-15.27-35.64-28.39-57.96-35.68C51.2-1.38,25.73-2.43,3.75,5.62c0,0-23.75,8.09-23.75,34.66v94.51H3.75v207.2H550Z"/>
        <circle class="cls-18" cx="67.77" cy="42.18" r="4.48"/>
        <circle class="cls-16" cx="402.63" cy="259.2" r="4.48"/>
        <path class="cls-6" d="M1370,342c.7-11.17,6.4-22.4,16.74-28.94,10.34-6.54,25.48-7.47,35.76-.86-.24-10.35,5.23-25.94,14.32-32.53,9.09-6.6,20.3-9.54,31.84-7.39-10.23-37.31,.34-79.89,32.21-106.17,31.86-26.28,86.71-36.64,121.52-13.41,3.51-11.93,14.41-21.97,27.82-25.62,13.41-3.66,28.87-.81,39.47,7.26,2.35-10.95,10.1-20.92,20.86-26.83,10.76-5.91,25.68-8.32,37.94-5.4,3.96-25.48,20.03-41.74,40.04-60.53,16.26-15.27,35.64-28.39,57.96-35.68,22.32-7.28,47.8-8.33,69.77-.28,0,0,23.75,8.09,23.75,34.66v94.51h-23.75v207.2h-546.25Z"/>
        <circle class="cls-13" cx="1510.89" cy="225" r="4.48"/>
        <circle class="cls-17" cx="1852.23" cy="42.18" r="4.48"/>
        <path class="cls-3" d="M1916.25,521.46C1311.62,348.95,651.72,280.37,0,307.03v214.43H1916.25Z"/>
        <path class="cls-3" d="M0,521.46c605.81-172.51,1267-241.09,1920-214.43v214.43H0Z"/>
        <path class="cls-4" d="M404.77,326.84c-7.83-5.23-19.29-5.98-27.08-.69,.18-8.28-2.77-20.01-9.66-25.29-6.88-5.28-12.11-8-25.31-6.65,7.75-29.85-.26-63.91-24.39-84.94-24.13-21.03-65.67-23.89-92.03-5.3-2.66-9.54-10.91-17.57-21.07-20.5-10.15-2.93-21.87-.65-29.9,5.81-1.78-8.76-7.65-16.73-15.8-21.46-8.15-4.73-19.45-6.66-28.73-4.32-3-20.39-15.17-38.82-30.33-53.85-12.31-12.21-26.99-22.72-43.9-28.54-16.91-5.83-36.2-6.66-52.84-.22-18.65,6.56-23.75,28.96-23.75,28.96V397.72l437.45-24.93v-22.8c-.53-8.93-4.84-17.92-12.67-23.15Z"/>
        <circle class="cls-14" cx="150.28" cy="209.08" r="4.48"/>
        <path class="cls-15" d="M79.46,256.12c-2.42,6.79-4.39,9.07-10.24,11.88,5.85,2.81,7.81,5.09,10.24,11.88,2.42-6.79,4.39-9.07,10.24-11.88-5.85-2.81-7.81-5.09-10.24-11.88Z"/>
        <path class="cls-12" d="M155.82,312.66c0-.31,0-.53,0-.75,0-8.39,0-16.78,0-25.17,0-.57,.13-1.07,.55-1.45,.78-.71,1.9-.56,2.55,.37,.86,1.25,1.67,2.54,2.56,3.76,2.11,2.89,4.83,5.14,7.63,7.31,2.84,2.2,3.97,5.15,3.12,8.65-.82,3.4-3.11,5.45-6.52,6.23-.48,.11-.99,.13-1.49,.14-.98,.01-1.72-.71-1.74-1.64-.01-.93,.71-1.65,1.69-1.69,2.35-.1,4.18-1.5,4.79-3.69,.56-2-.14-4.07-1.83-5.32-2.65-1.97-5.16-4.09-7.32-6.61-.19-.22-.38-.44-.66-.77,0,.33,0,.53,0,.72,0,8.54,0,17.08,0,25.61,0,3.78-3,6.75-6.79,6.73-3.32-.02-6.14-2.62-6.53-6.02-.36-3.13,1.83-6.29,4.92-7.1,1.75-.46,3.4-.21,5.07,.69Z"/>
        <path class="cls-10" d="M98.81,141.99c-11.93,0-21.63-9.7-21.63-21.63s9.7-21.63,21.63-21.63,21.63,9.7,21.63,21.63-9.7,21.63-21.63,21.63Zm0-40.98c-10.67,0-19.35,8.68-19.35,19.35s8.68,19.35,19.35,19.35,19.35-8.68,19.35-19.35-8.68-19.35-19.35-19.35Z"/>
        <path class="cls-4" d="M1515.23,326.84c7.83-5.23,19.29-5.98,27.08-.69-.18-8.28,2.77-20.01,9.66-25.29,6.88-5.28,12.11-8,25.31-6.65-7.75-29.85,.26-63.91,24.39-84.94,24.13-21.03,65.67-23.89,92.03-5.3,2.66-9.54,10.91-17.57,21.07-20.5,10.15-2.93,21.87-.65,29.9,5.81,1.78-8.76,7.65-16.73,15.8-21.46,8.15-4.73,19.45-6.66,28.73-4.32,3-20.39,15.17-38.82,30.33-53.85,12.31-12.21,26.99-22.72,43.9-28.54,16.91-5.83,36.2-6.66,52.84-.22,18.65,6.56,23.75,28.96,23.75,28.96V397.72l-437.45-24.93v-22.8c.53-8.93,4.84-17.92,12.67-23.15Z"/>
        <path class="cls-11" d="M1849.34,174.61c2.93,5.44,6.21,8.73,11.66,11.66-5.44,2.93-8.73,6.21-11.66,11.66-2.93-5.44-6.21-8.73-11.66-11.66,5.44-2.93,8.73-6.21,11.66-11.66m0-6.85c-4.38,10.58-7.93,14.13-18.51,18.51,10.58,4.38,14.13,7.93,18.51,18.51,4.38-10.58,7.93-14.13,18.51-18.51-10.58-4.38-14.13-7.93-18.51-18.51h0Z"/>
        <circle class="cls-8" cx="1778.93" cy="251.88" r="4.48"/>
        <path class="cls-7" d="M1817.89,321.6c-11.93,0-21.63-9.7-21.63-21.63s9.7-21.63,21.63-21.63,21.63,9.7,21.63,21.63-9.7,21.63-21.63,21.63Zm0-40.98c-10.67,0-19.35,8.68-19.35,19.35s8.68,19.35,19.35,19.35,19.35-8.68,19.35-19.35-8.68-19.35-19.35-19.35Z"/>
        <path class="cls-9" d="M1669.17,262.3v-13.68c-6.74,1.9-13.45,3.8-20.21,5.71,0,.22,0,.44,0,.66,0,6.56,0,13.11,0,19.67,0,3.79-2.99,6.77-6.77,6.75-3.33-.02-6.13-2.58-6.55-6-.38-3.12,1.81-6.3,4.9-7.11,1.59-.42,3.11-.27,4.59,.43,.14,.07,.29,.13,.49,.22v-.71c0-7.15,0-14.3,0-21.45,0-1.3,.34-1.75,1.58-2.1,7.62-2.16,15.24-4.32,22.86-6.49,1.2-.34,2.12,.07,2.4,1.09,.05,.19,.06,.4,.06,.6,0,9.41,0,18.82,0,28.23,0,3.43-2.76,6.36-6.18,6.6-3.43,.24-6.54-2.21-7.05-5.58-.4-2.61,.46-4.77,2.54-6.36,2.12-1.62,4.46-1.83,6.9-.71,.13,.06,.26,.13,.45,.22Z"/>
        <path class="cls-5" d="M1920,395.67C1290.54,307.47,633.01,305.08,0,390.57v59.43H1920v-54.33Z"/>
        <path class="cls-5" d="M1920,395.67C1290.54,307.47,633.01,305.08,0,390.57v59.43H1920v-54.33Z"/>
      </g>
    </g>
  </g>
</svg>