<svg width="1440" height="68" viewBox="0 0 1440 68" fill="none" xmlns="http://www.w3.org/2000/svg">
<path d="M0 43.077C80.0025 43.077 80.0024 67.6924 159.997 67.6924C240 67.6924 240 43.077 319.995 43.077C399.997 43.077 399.997 67.6924 479.992 67.6924C559.987 67.6924 559.987 43.077 639.99 43.077C719.992 43.077 719.993 67.6924 799.988 67.6924C879.99 67.6924 879.99 43.077 959.985 43.077C1039.98 43.077 1039.99 67.6924 1119.99 67.6924C1199.99 67.6924 1199.99 43.077 1279.99 43.077C1360 43.077 1360 67.6924 1440 67.6924V7.9155e-05H0V43.077Z" fill="#109D91"/>
</svg>
