<svg width="1440" height="188" viewBox="0 0 1440 188" fill="none" xmlns="http://www.w3.org/2000/svg">
<g clip-path="url(#clip0_45_1820)">
<path d="M1440 129.308C967.448 27.9603 474.39 23.2728 0 115.62V187.5H1440V129.308Z" fill="#006060"/>
<path d="M914.143 22.9714C911.03 22.5439 908.203 22.5064 905.63 22.7689L903.448 34.1464L902.008 23.3914C899.585 23.9689 897.425 24.8314 895.505 25.9264L896.128 38.8789C896.128 38.8789 894.028 33.2914 892.063 28.3114C880.835 37.6639 880.093 55.2289 880.093 55.2289L940.175 62.1139C940.175 62.1139 946.82 27.4264 914.135 22.9714H914.143Z" fill="#006060"/>
<path d="M866.218 54.3061C866.218 54.3061 860.623 21.3061 853.641 22.0111C846.658 22.7161 855.381 46.2361 855.381 46.2361C855.381 46.2361 850.191 34.6411 845.473 38.1586C840.756 41.6761 848.878 62.7361 848.878 62.7361L866.218 54.3136V54.3061Z" fill="#006060"/>
</g>
<defs>
<clipPath id="clip0_45_1820">
<rect width="1440" height="187.5" fill="white" transform="matrix(-1 0 0 1 1440 0)"/>
</clipPath>
</defs>
</svg>
