<svg width="1440" height="188" viewBox="0 0 1440 188" fill="none" xmlns="http://www.w3.org/2000/svg">
<g clip-path="url(#clip0_129_878)">
<path d="M509.587 187.5C803.16 72.0075 1123.57 26.1 1440 43.95V187.5H509.587Z" fill="#109D91"/>
<path d="M641.483 187.5C439.08 72.0075 218.168 26.1 0 43.95V187.5H641.483Z" fill="#109D91"/>
<path d="M0 129.308C472.552 27.9603 965.61 23.2728 1440 115.62V187.5H0V129.308Z" fill="#02887B"/>
<path d="M861.046 57.7644C861.046 57.7644 848.581 38.1519 852.916 34.2069C857.251 30.2619 863.446 44.0019 863.446 44.0019C863.446 44.0019 854.588 21.8244 868.448 20.0844C882.308 18.3444 893.438 44.0844 893.438 44.0844C893.438 44.0844 895.411 36.4569 900.383 39.3144C905.356 42.1719 893.438 58.7319 893.438 58.7319L861.053 57.7569L861.046 57.7644Z" fill="#02887B"/>
<path d="M917 56.3061C917 56.3061 922.595 23.3061 929.578 24.0111C936.56 24.7161 927.838 48.2361 927.838 48.2361C927.838 48.2361 933.028 36.6411 937.745 40.1586C942.463 43.6761 934.34 64.7361 934.34 64.7361L917 56.3136V56.3061Z" fill="#02887B"/>
</g>
<defs>
<clipPath id="clip0_129_878">
<rect width="1440" height="187.5" fill="white" transform="matrix(-1 0 0 1 1440 0)"/>
</clipPath>
</defs>
</svg>
