<?xml version="1.0" encoding="UTF-8"?>
<svg id="website" xmlns="http://www.w3.org/2000/svg" viewBox="0 0 1000 100">
  <defs>
    <style>
      .cls-1 {
        fill: #fff;
      }
    </style>
  </defs>
  <g>
    <g>
      <path class="cls-1" d="M282.22,39.8c.62-.35,1.13-.82,1.53-1.39,.4-.58,.71-1.24,.93-1.98,.21-.75,.37-1.51,.48-2.3,.11-.79,.17-1.56,.19-2.33s.03-1.46,.03-2.07h-1.31c-.13,1.02-.47,1.76-1.02,2.24-.55,.48-1.47,.72-2.75,.72h-10.74c.87-.48,1.84-1,2.89-1.55s2.13-1.16,3.21-1.81c1.09-.65,2.14-1.35,3.16-2.1,1.02-.75,1.93-1.54,2.73-2.39,.8-.84,1.44-1.74,1.92-2.67,.48-.94,.72-1.93,.72-2.96,0-1.49-.29-2.79-.86-3.89-.57-1.1-1.37-2.01-2.38-2.72-1.01-.71-2.21-1.24-3.6-1.58-1.39-.34-2.88-.52-4.47-.52-1.87,0-3.61,.28-5.21,.83-1.6,.56-3.03,1.26-4.28,2.1s-2.33,1.76-3.21,2.76c-.88,1-1.56,1.95-2.03,2.85l.86,.75c.41-.54,.88-1.06,1.42-1.58,.54-.52,1.16-.97,1.85-1.35,.69-.38,1.46-.69,2.3-.93,.84-.24,1.77-.36,2.79-.36,1.09,0,2.02,.13,2.79,.4,.78,.27,1.42,.65,1.93,1.14s.89,1.07,1.13,1.74c.25,.67,.37,1.42,.37,2.24,0,1.15-.3,2.33-.91,3.55-.61,1.22-1.39,2.42-2.35,3.59-.96,1.18-2.03,2.33-3.23,3.44-1.19,1.11-2.38,2.13-3.55,3.05-1.17,.92-2.27,1.73-3.31,2.42-1.03,.69-1.87,1.22-2.51,1.58v1.64h22.17c.89,0,1.65-.18,2.27-.53Z"/>
      <path class="cls-1" d="M317.95,14.15c-1.5-1.24-3.26-2.16-5.27-2.76-2.01-.6-4.17-.91-6.47-.91s-4.45,.3-6.45,.91c-2,.6-3.76,1.52-5.26,2.76-1.5,1.24-2.68,2.81-3.55,4.73-.86,1.92-1.29,4.18-1.29,6.79s.43,4.86,1.29,6.77c.86,1.91,2.04,3.48,3.55,4.72,1.5,1.24,3.25,2.15,5.26,2.74,2,.59,4.15,.89,6.45,.89s4.46-.3,6.47-.89c2.01-.59,3.77-1.51,5.27-2.74,1.5-1.24,2.69-2.81,3.56-4.72,.87-1.91,1.31-4.16,1.31-6.77s-.44-4.87-1.31-6.79c-.87-1.92-2.06-3.49-3.56-4.73Zm-6.12,16.52c-.17,1.36-.41,2.5-.7,3.42-.3,.92-.64,1.65-1.04,2.2-.4,.55-.81,.96-1.25,1.25s-.88,.47-1.34,.55-.89,.12-1.29,.12-.83-.04-1.28-.12c-.45-.08-.89-.26-1.33-.55s-.85-.7-1.23-1.25-.72-1.28-1.02-2.2c-.3-.92-.54-2.06-.72-3.44-.18-1.37-.27-3.02-.27-4.93s.09-3.56,.27-4.93c.18-1.37,.42-2.53,.72-3.46,.3-.94,.64-1.69,1.02-2.26,.38-.57,.79-1,1.23-1.31,.44-.31,.88-.51,1.33-.6,.45-.1,.87-.14,1.28-.14s.84,.05,1.29,.14c.46,.1,.91,.3,1.34,.6,.44,.31,.85,.74,1.25,1.31,.39,.57,.74,1.32,1.04,2.26,.3,.94,.53,2.09,.7,3.46,.17,1.37,.26,3.02,.26,4.93s-.08,3.59-.26,4.95Z"/>
      <path class="cls-1" d="M349.34,39.8c.62-.35,1.13-.82,1.53-1.39,.4-.58,.71-1.24,.93-1.98,.21-.75,.37-1.51,.48-2.3,.11-.79,.17-1.56,.19-2.33s.03-1.46,.03-2.07h-1.31c-.13,1.02-.47,1.76-1.02,2.24-.55,.48-1.47,.72-2.75,.72h-10.74c.87-.48,1.84-1,2.89-1.55,1.05-.56,2.12-1.16,3.21-1.81,1.09-.65,2.14-1.35,3.16-2.1,1.02-.75,1.93-1.54,2.73-2.39,.8-.84,1.44-1.74,1.92-2.67,.48-.94,.72-1.93,.72-2.96,0-1.49-.29-2.79-.86-3.89-.58-1.1-1.37-2.01-2.38-2.72-1.01-.71-2.21-1.24-3.59-1.58-1.39-.34-2.88-.52-4.47-.52-1.88,0-3.61,.28-5.21,.83-1.6,.56-3.02,1.26-4.28,2.1-1.26,.84-2.33,1.76-3.21,2.76s-1.56,1.95-2.03,2.85l.86,.75c.41-.54,.88-1.06,1.42-1.58,.54-.52,1.16-.97,1.85-1.35s1.46-.69,2.3-.93c.84-.24,1.77-.36,2.8-.36,1.09,0,2.02,.13,2.79,.4,.78,.27,1.42,.65,1.93,1.14s.89,1.07,1.13,1.74c.24,.67,.37,1.42,.37,2.24,0,1.15-.3,2.33-.91,3.55-.61,1.22-1.39,2.42-2.35,3.59-.96,1.18-2.03,2.33-3.23,3.44-1.19,1.11-2.38,2.13-3.55,3.05s-2.27,1.73-3.31,2.42c-1.03,.69-1.87,1.22-2.51,1.58v1.64h22.17c.89,0,1.65-.18,2.27-.53Z"/>
      <path class="cls-1" d="M371.42,47.92c0,1.49,.42,2.58,1.25,3.25,.83,.67,2.14,1.01,3.93,1.01s3.1-.34,3.93-1.01c.83-.67,1.25-1.75,1.25-3.25v-8.77h6.36v-2.64h-6.36V14.19c0-.54-.09-1.04-.26-1.5s-.45-.85-.85-1.18c-.4-.33-.91-.58-1.55-.76-.64-.18-1.42-.27-2.33-.27-.85,0-1.58,.11-2.17,.33-.6,.22-1.11,.49-1.53,.82s-.79,.69-1.09,1.09c-.3,.4-.58,.79-.83,1.15l-14.86,22.63v2.64h15.11v8.77Zm-10.93-11.42l10.93-17.02v17.02h-10.93Z"/>
    </g>
    <g>
      <path class="cls-1" d="M248.04,67.75c.46,.45,1.02,.79,1.67,1.05,.66,.25,1.39,.38,2.21,.38,.53,0,1.06-.07,1.6-.22s1.01-.37,1.43-.67c.42-.3,.76-.67,1.02-1.12s.4-.97,.4-1.59c0-.43-.07-.79-.2-1.09s-.3-.54-.5-.72-.41-.32-.64-.4c-.23-.08-.45-.13-.65-.13-.26,0-.48,.07-.68,.2-.2,.13-.41,.27-.63,.41-.22,.15-.47,.29-.74,.41s-.62,.2-1.05,.2c-.09,0-.23-.02-.42-.06-.2-.04-.39-.13-.58-.28s-.35-.36-.5-.66c-.14-.29-.22-.68-.22-1.17,0-.7,.25-1.36,.74-1.97,.49-.61,1.13-1.13,1.9-1.56,.78-.44,1.64-.78,2.61-1.04,.96-.25,1.91-.38,2.85-.38,1.29,0,1.94,.42,1.94,1.27v25.17c0,.89,.15,1.69,.45,2.39,.3,.71,.86,1.31,1.67,1.81,.82,.5,1.96,.88,3.43,1.14,1.47,.26,3.37,.39,5.7,.39,2.52,0,4.74-.24,6.65-.71s3.5-1.16,4.78-2.06c1.28-.9,2.24-1.99,2.89-3.28,.65-1.29,.97-2.74,.97-4.35,0-1.06-.12-2-.37-2.82-.25-.82-.57-1.54-.97-2.16s-.86-1.15-1.37-1.59c-.51-.44-1.03-.8-1.56-1.09-1.26-.69-2.68-1.12-4.27-1.29v-.35c1.01-.35,1.91-.84,2.71-1.47,.34-.26,.67-.57,1-.92,.32-.35,.61-.76,.87-1.21s.46-.95,.63-1.51,.24-1.16,.24-1.82c0-2.65-1.16-4.67-3.49-6.06-2.33-1.39-5.96-2.08-10.9-2.08-2.01,0-3.95,.06-5.81,.17-1.87,.11-3.62,.31-5.25,.59-1.64,.28-3.13,.65-4.47,1.12-1.35,.47-2.5,1.05-3.46,1.76-.96,.71-1.71,1.55-2.24,2.52-.53,.97-.79,2.1-.79,3.37,0,.67,.12,1.31,.36,1.91s.59,1.12,1.05,1.56Zm20.12-8.76c0-.44,.07-.82,.22-1.12,.14-.3,.34-.54,.59-.72,.25-.18,.54-.31,.87-.39s.68-.12,1.04-.12c.58,0,1.15,.14,1.7,.41s1.04,.67,1.46,1.18,.75,1.15,1.01,1.9c.26,.75,.38,1.59,.38,2.53,0,1.38-.15,2.53-.46,3.44s-.72,1.64-1.24,2.17c-.52,.54-1.12,.91-1.8,1.13-.68,.21-1.4,.31-2.15,.28l-.51,1.17c1.19,.06,2.3,.29,3.32,.7,1.02,.41,1.91,.98,2.66,1.71,.75,.74,1.33,1.64,1.75,2.7,.42,1.07,.63,2.3,.63,3.69,0,.94-.15,1.88-.46,2.82-.31,.94-.74,1.8-1.3,2.55-.56,.76-1.24,1.38-2.02,1.86-.78,.48-1.64,.72-2.58,.72-.65,0-1.17-.07-1.57-.21s-.72-.32-.95-.55-.38-.5-.46-.82-.12-.65-.12-1v-26.06Z"/>
      <path class="cls-1" d="M292.89,86.57c1.09,.97,2.34,1.69,3.74,2.17,1.41,.48,2.85,.72,4.33,.72s2.8-.16,3.96-.49c1.16-.33,2.17-.74,3.04-1.24s1.61-1.03,2.22-1.6c.61-.57,1.12-1.09,1.51-1.57l-.64-.55c-.41,.32-.82,.62-1.23,.91s-.83,.53-1.28,.75-.92,.38-1.43,.51c-.51,.12-1.06,.18-1.66,.18-.85,0-1.64-.12-2.35-.37-.72-.24-1.37-.58-1.96-.99s-1.11-.89-1.56-1.41-.83-1.09-1.14-1.67c-.31-.58-.54-1.16-.7-1.74-.16-.57-.24-1.11-.24-1.6l10.1-5.36c.77-.43,1.38-.93,1.84-1.51,.46-.58,.69-1.22,.69-1.94,0-.6-.15-1.17-.46-1.71-.31-.54-.77-1.02-1.39-1.44-.62-.41-1.4-.74-2.34-.99-.94-.24-2.04-.37-3.3-.37-.95,0-1.95,.12-2.98,.36-1.03,.24-2.04,.59-3.03,1.06-.99,.47-1.93,1.05-2.82,1.76s-1.68,1.53-2.35,2.46-1.21,1.99-1.6,3.15c-.39,1.17-.59,2.45-.59,3.84,0,1.93,.33,3.62,.98,5.06,.66,1.44,1.53,2.65,2.62,3.61Zm4.4-11.44c.02-.62,.07-1.27,.15-1.94,.09-.68,.21-1.35,.37-2.01s.38-1.26,.66-1.78c.28-.52,.64-.95,1.07-1.28s.96-.5,1.57-.5c.48,0,.89,.14,1.23,.41,.34,.28,.62,.62,.84,1.04s.38,.85,.47,1.32,.14,.89,.14,1.28c0,.35-.02,.65-.06,.89s-.11,.44-.19,.6-.2,.3-.35,.41c-.14,.11-.33,.23-.55,.36l-5.39,2.78c0-.43,0-.96,.03-1.58Z"/>
      <path class="cls-1" d="M313.21,67.8c.2-.09,.45-.14,.74-.14,.55,0,.93,.16,1.16,.49,.23,.33,.35,.72,.35,1.16v17.76c0,.17,.03,.39,.09,.67,.06,.28,.22,.54,.47,.8,.26,.26,.64,.49,1.15,.68s1.22,.29,2.12,.29,1.62-.09,2.15-.27c.53-.18,.93-.39,1.21-.64s.46-.52,.54-.81c.08-.28,.12-.52,.12-.72v-17.99c0-.34-.03-.73-.09-1.17s-.23-.86-.52-1.25-.74-.72-1.35-.99c-.61-.27-1.47-.4-2.58-.4-.72,0-1.4,.07-2.04,.21-.65,.14-1.25,.31-1.81,.53-.56,.22-1.09,.46-1.57,.75s-.92,.57-1.32,.86l.54,.58c.24-.17,.46-.3,.66-.39Z"/>
      <path class="cls-1" d="M315.88,62.27c.38,.28,.83,.51,1.33,.68,.5,.17,1.05,.25,1.65,.25s1.12-.08,1.62-.25c.5-.17,.94-.39,1.32-.68,.37-.28,.67-.62,.88-1s.32-.8,.32-1.24-.11-.84-.32-1.23c-.21-.39-.51-.73-.88-1.02-.37-.29-.81-.52-1.32-.69-.5-.17-1.04-.25-1.62-.25s-1.15,.08-1.65,.25c-.5,.17-.95,.4-1.33,.69-.38,.29-.68,.63-.89,1.02-.21,.39-.32,.8-.32,1.23s.11,.86,.32,1.24,.51,.72,.89,1Z"/>
      <path class="cls-1" d="M330.11,84.29c0,.9,.16,1.68,.49,2.32s.75,1.18,1.29,1.61,1.15,.74,1.84,.94c.69,.2,1.41,.3,2.16,.3,1.33,0,2.43-.17,3.31-.51s1.61-.76,2.19-1.25c.58-.5,1.04-1.04,1.39-1.62s.65-1.12,.91-1.61l-.79-.32c-.22,.43-.49,.81-.79,1.13-.26,.29-.56,.55-.92,.78s-.77,.34-1.23,.34c-.6,0-1.06-.16-1.41-.47-.34-.31-.51-.88-.51-1.69v-17h3.96c1.41,0,2.44-.29,3.08-.88,.64-.59,.96-1.38,.96-2.38,0-.25-.04-.49-.12-.74-.08-.24-.19-.46-.35-.65s-.35-.35-.58-.46c-.23-.12-.5-.17-.81-.17-.48,0-.87,.12-1.16,.37-.3,.25-.45,.58-.45,1.01,0,.35,.09,.61,.26,.76s.36,.27,.58,.36c.21,.08,.41,.15,.58,.21,.17,.05,.26,.16,.26,.31,0,.41-.68,.62-2.04,.62h-4.17v-6.79h-2.04c-.32,1.29-.87,2.37-1.64,3.24-.77,.87-1.6,1.57-2.49,2.09-.89,.52-1.77,.89-2.62,1.12-.85,.22-1.52,.33-1.99,.33v1.66h2.86v17.05Z"/>
      <path class="cls-1" d="M346.21,82.66c.65,1.52,1.51,2.78,2.59,3.8,1.08,1.01,2.34,1.78,3.77,2.29,1.43,.51,2.93,.77,4.5,.77s3.07-.27,4.5-.82c1.43-.54,2.69-1.34,3.77-2.4,1.08-1.06,1.95-2.36,2.59-3.91,.65-1.55,.97-3.33,.97-5.34s-.32-3.78-.97-5.26c-.65-1.48-1.51-2.7-2.59-3.67-1.08-.97-2.34-1.68-3.77-2.15-1.43-.47-2.93-.7-4.5-.7s-3.07,.25-4.5,.76c-1.43,.51-2.69,1.27-3.77,2.28-1.08,1.01-1.95,2.27-2.59,3.78s-.97,3.27-.97,5.28,.32,3.77,.97,5.29Zm7.13-8.88c.09-1.17,.26-2.2,.54-3.12,.27-.91,.66-1.65,1.18-2.21,.51-.56,1.18-.84,2.02-.84s1.51,.27,2.02,.79c.51,.53,.9,1.24,1.18,2.13,.27,.89,.46,1.91,.55,3.05,.09,1.14,.14,2.33,.14,3.55s-.05,2.44-.14,3.64c-.09,1.2-.28,2.27-.55,3.22-.27,.95-.66,1.72-1.18,2.3-.51,.58-1.18,.87-2.02,.87s-1.51-.28-2.02-.84c-.51-.56-.9-1.3-1.18-2.22s-.45-1.97-.54-3.14c-.09-1.17-.13-2.37-.13-3.6s.04-2.42,.13-3.59Z"/>
      <path class="cls-1" d="M372.09,68.55c.26-.21,.55-.31,.86-.31,.26,0,.45,.05,.59,.14,.14,.09,.24,.21,.31,.36s.11,.3,.13,.46,.03,.31,.03,.45v14.24c0,.68,.1,1.35,.31,2.03s.53,1.28,.97,1.82c.44,.54,1.03,.97,1.75,1.3,.72,.33,1.6,.5,2.62,.5,.53,0,1.06-.06,1.58-.18s1.04-.29,1.53-.49,.97-.44,1.43-.7c.46-.26,.89-.53,1.3-.81,.94-.63,1.83-1.36,2.68-2.18v1.03c0,.46,.09,.89,.28,1.3,.19,.41,.47,.76,.86,1.06,.38,.3,.85,.54,1.41,.71,.55,.18,1.21,.27,1.96,.27,.89,0,1.68-.12,2.38-.36,.7-.24,1.32-.53,1.87-.88s1.01-.73,1.39-1.12c.38-.39,.7-.75,.96-1.07l-.61-.48c-.22,.21-.46,.42-.72,.63s-.55,.31-.87,.31c-.26,0-.45-.05-.59-.14-.14-.09-.24-.21-.31-.36s-.11-.3-.13-.46-.03-.31-.03-.45v-16.54c0-.46-.09-.89-.28-1.3-.19-.41-.47-.76-.84-1.06s-.84-.54-1.41-.71-1.22-.26-1.97-.26c-.87,0-1.66,.12-2.36,.36-.71,.24-1.33,.53-1.88,.89-.55,.35-1.01,.72-1.39,1.11s-.7,.75-.96,1.07l.64,.48c.2-.21,.44-.43,.7-.63,.26-.21,.55-.31,.86-.31,.26,0,.45,.05,.59,.14,.14,.09,.24,.21,.31,.36s.11,.3,.13,.46,.03,.31,.03,.45v13.43c-.14,.15-.35,.38-.65,.69s-.65,.62-1.06,.93c-.41,.31-.86,.59-1.35,.82s-.99,.35-1.48,.35c-.31,0-.57-.06-.79-.17-.22-.12-.41-.27-.55-.45s-.26-.39-.33-.61-.12-.44-.12-.66v-15.37c0-.46-.09-.89-.28-1.3-.19-.41-.47-.76-.84-1.06s-.84-.54-1.41-.71-1.22-.26-1.97-.26c-.87,0-1.66,.12-2.36,.36-.71,.24-1.33,.53-1.88,.89-.55,.35-1.01,.72-1.39,1.11-.38,.39-.7,.75-.96,1.07l.64,.48c.2-.21,.44-.43,.7-.63Z"/>
    </g>
  </g>
  <g>
    <path class="cls-1" d="M0,88.09s.09-.01,.14-.02l-.14-.66v.69Z"/>
    <path class="cls-1" d="M211.32,84.68c-.56-.06-1.23-.14-2.01-.18-1.17-.12-2.39-.25-3.68-.39-3.73-.48-8.24-1.3-12.85-2.23,3.8-3.27,6.98-7.81,9.4-12.06,3.02-5.29,5.56-10.9,6.43-16.9,.04-.27,.07-.53,.11-.8,.01-.09,.01-.17,.01-.26,0-1.19-.71-2.28-1.84-2.75l-.98-.41-7.51-3.11s-.04-.02-.06-.03c0,0,0,.01,0,.02h-.01c.47,.68,.71,1.4,.71,2.13,0,.08-.02,.16-.02,.24,0,.14-.02,.28-.04,.41-.03,.17-.08,.33-.14,.49-.01,.04-.02,.08-.04,.12-.05,.14-.12,.28-.18,.41-.05,.09-.1,.19-.15,.28-.06,.1-.11,.19-.18,.28-2.03,2.92-7.93,5.11-15.07,5.38h-2.72c-8.84-.27-15.81-3.5-15.83-7.48,0-.75,.24-1.47,.7-2.16-2.86,1.6-4.56,3.62-4.55,5.8,.01,2.97,2.97,4.98,5.34,6.15,4.08,2,8.78,2.79,13.28,3,5.07,.24,10.3-.23,15.14-1.86,.53-.18,1.09-.39,1.65-.61-.12,.49-.26,.99-.38,1.48-.65,2.58-1.57,5.09-2.7,7.5-1.97,4.22-4.61,8.14-7.8,11.53-6.99-3.07-13.05-9.19-16.31-16.76-2.1-.7-3.88-1.57-5.24-2.58,1.13,6.87,4.26,13.42,8.9,18.78-4.89-.58-9.83-.66-14.71-.08-3.82,.64-8.16,2.01-9.76,5.82-1.77,3.88,.99,8.02,4.97,9.97,.06,.02,.12,.05,.18,.09,11.27,4.45,22.96-.58,32.17-6.47,11.46,4.61,19.75,9.24,19.75,9.24l16.53-11.29s-4.1-.14-10.52-.72Zm-33.05,.03c-6.78,4.89-15.05,9.07-23.33,6.27l-.33-.12c-2.18-1.06-3.74-3.4-2.6-5.49,3.69-5.75,20.82-2.15,26.24-.68,.01,0,.02,0,.03,.01h0Z"/>
    <path class="cls-1" d="M148.34,44.84c-1.39,2.13-3.07,4.05-4.95,5.74V27.97h6.69c1.98,0,3.21,1.74,3.21,1.74h1.74v-6.96h-1.74s-1.23,1.74-3.21,1.74h-6.69V9.44h-.02s.02-.01,.02-.01c0-1.64-.66-3.12-1.73-4.19s-2.55-1.73-4.19-1.73h-8.03v2.44h1.09c1.91,0,3.46,1.55,3.46,3.46v15.08h-11.59c-1.98,0-3.21-1.74-3.21-1.74h-1.74v6.96h1.74s1.23-1.74,3.21-1.74h11.59v28.58c-5.16,2.2-10.8,3.21-16.33,2.98v8.17c5.62-.39,11.23-1.88,16.33-4.33v22.07c0,2.95-1.35,5.83-3.82,7.45-.02,.01-.03,.02-.05,.03-3.18,2.05-7.24,2.79-10.97,2.77l.8,2.18c5.18,0,11.39,.12,16.13-2.32,2.89-1.49,5.95-3.81,6.89-7.11,.4-1.42,.42-2.97,.42-4.44v-14.69s0,0,0,0v-12.13c3.31-2.94,6.11-6.43,8.12-10.45l-3.17-1.88Z"/>
    <path class="cls-1" d="M175.06,16.28c.29-2,.4-4.02,.4-6.04v-3.16h-15.2v2.44h1.09c1.88,0,3.4,1.51,3.45,3.38-.09,7.94-.98,14.89-5.04,21.65-1.54,2.34-6.9,7.36-6.9,7.36,14.42-1.66,20.38-13.19,22.2-25.63Z"/>
    <path class="cls-1" d="M190.76,11.3c.07,3.06,.5,14.19,3.15,20.05,1.1,2.65,2.87,4.98,5.26,6.72,5.67,4.05,15.15,2.65,19.21,1.92v-4.74c-6.82,0-15.74-.14-16.36-8.76V12.72c.14-1.79,1.61-3.21,3.43-3.21h1.09v-2.44h-27.29v3.48h11.42l.1,.74Z"/>
    <g>
      <path class="cls-1" d="M176.85,43.9c-.05-.2-.1-.39-.17-.58-.07-.19-.15-.38-.24-.57-.05-.09-.09-.19-.15-.28-.05-.09-.11-.18-.16-.27-.69-1.13-1.12-2.26-1.11-3.45,0-.59,.12-1.2,.35-1.83,.12-.31,.26-.63,.43-.95,.09-.16,.18-.32,.29-.48h0c.11-.17-.2-.33-.44-.23h0c-.25,.1-.49,.21-.71,.33-.46,.24-.87,.51-1.24,.81-.37,.3-.69,.63-.97,.97-.27,.35-.49,.71-.66,1.09-.33,.76-.42,1.56-.31,2.34,.11,.78,.43,1.54,.88,2.25,.71,1.1,1.08,2.21,.9,3.36-.09,.58-.31,1.17-.68,1.77-.18,.3-.4,.6-.64,.9-.12,.15-.26,.3-.4,.45,0,0,0,0,0,0-.14,.15,.11,.33,.37,.25,0,0,0,0,0,0,.26-.08,.52-.17,.77-.27,.5-.2,.97-.44,1.4-.7,.43-.27,.82-.57,1.16-.9,.34-.33,.62-.68,.85-1.06,.22-.37,.38-.77,.48-1.16,.01-.05,.02-.1,.03-.15,.01-.05,.02-.1,.03-.15,.01-.1,.03-.2,.03-.3,.01-.2,.02-.4,0-.6-.01-.2-.05-.4-.09-.6Z"/>
      <path class="cls-1" d="M191.94,43.84c-.05-.2-.1-.39-.17-.58-.07-.19-.15-.38-.24-.57-.04-.09-.09-.19-.14-.28-.05-.09-.11-.18-.16-.27-.7-1.13-1.12-2.26-1.11-3.45,0-.59,.11-1.2,.34-1.83,.12-.31,.26-.63,.44-.95,.09-.16,.18-.32,.28-.48h0c.11-.18-.19-.33-.44-.23h0c-.24,.1-.49,.21-.71,.33-.45,.24-.87,.51-1.24,.81-.37,.3-.7,.63-.97,.97-.27,.35-.49,.71-.65,1.09-.33,.76-.42,1.56-.31,2.34,.11,.78,.43,1.54,.88,2.25,.71,1.1,1.08,2.21,.91,3.36-.09,.58-.31,1.17-.68,1.77-.18,.3-.4,.6-.65,.9-.12,.15-.25,.3-.4,.45,0,0,0,0,0,0-.14,.15,.11,.33,.37,.25,0,0,0,0,0,0,.26-.08,.52-.17,.77-.27,.5-.2,.97-.44,1.4-.7,.43-.27,.82-.57,1.16-.9,.34-.33,.62-.68,.85-1.06,.22-.37,.38-.77,.48-1.16,.01-.05,.02-.1,.03-.15,.01-.05,.02-.1,.03-.15,.02-.1,.03-.2,.03-.3,.01-.2,.02-.4,0-.6-.01-.2-.05-.4-.09-.6Z"/>
      <path class="cls-1" d="M184.38,43.87c-.05-.2-.1-.39-.17-.58-.07-.19-.15-.38-.24-.57-.04-.09-.09-.19-.14-.28-.05-.09-.11-.18-.16-.27-.7-1.13-1.12-2.26-1.11-3.45,0-.59,.12-1.2,.35-1.83,.12-.31,.26-.63,.43-.95,.09-.16,.18-.32,.29-.48h0c.1-.18-.2-.33-.44-.23h0c-.24,.1-.49,.21-.71,.33-.45,.24-.87,.51-1.24,.81-.37,.3-.69,.63-.97,.97-.27,.35-.49,.71-.65,1.09-.33,.76-.42,1.56-.31,2.34,.11,.78,.43,1.54,.89,2.25,.71,1.1,1.08,2.21,.9,3.36-.09,.58-.31,1.17-.68,1.77-.18,.3-.4,.6-.65,.9-.12,.15-.26,.3-.4,.45,0,0,0,0,0,0-.14,.15,.11,.33,.37,.25,0,0,0,0,0,0,.26-.08,.52-.17,.77-.27,.5-.2,.97-.44,1.4-.7,.43-.27,.82-.57,1.16-.9,.34-.33,.62-.68,.85-1.06,.22-.37,.38-.77,.48-1.16,.01-.05,.02-.1,.03-.15,0-.05,.02-.1,.02-.15,.02-.1,.03-.2,.04-.3,.01-.2,.02-.4,0-.6-.01-.2-.05-.4-.09-.6Z"/>
    </g>
    <g>
      <path class="cls-1" d="M6.95,42.99H31.52v32.02c3.42-1.31,6.79-2.75,10.09-4.31V8.05h-.02s.02-.01,.02-.01c0-1.64-.66-3.12-1.73-4.19s-2.55-1.73-4.19-1.73h-8.73v2.44h1.09c1.91,0,3.46,1.55,3.46,3.46v29.4H6.95c-3.73,0-5.2-3.13-5.2-3.13H0v11.84H1.74s1.47-3.14,5.2-3.14Z"/>
      <path class="cls-1" d="M0,88.11s.09-.01,.14-.02l-.14-.68v.7Z"/>
      <path class="cls-1" d="M103.56,76.83c-.28-4.23-1.22-8.46-2.47-12.51l-3.49,.39c-.01,4.71,.29,9.26-.18,13.96-.11,1.46-.69,3.22-1.49,4.22-3.15,4.9-22.68,4.96-25.61-.2-.58-.77-.39-2.55-.44-3.47,.02-3.41,.04-6.87,.17-10.31,4.87-3.82,9.46-8,13.74-12.46,5.83-6.74,10.16-13.98,13.39-22.23,1.14-3.42,2.31-7.92,.96-11.54-.8-1.9-2.82-3.07-4.84-3.22,0,.01-.01,0-.01,0-3.01-2.8-4-5.23-4.6-10.18-3.72,4.74-6.03,6.04-12,6.76,3.83,3.01,5.41,5.08,6.26,8.92-1.6,1.56-3.09,3.25-4.55,4.81-3.35,3.63-6.17,7.32-8.51,11.12V8.05h-.02s.02-.01,.02-.01c0-1.64-.66-3.12-1.73-4.19-1.07-1.07-2.55-1.73-4.19-1.73h-8.73v2.44h1.09c1.91,0,3.46,1.55,3.46,3.46v56.8s0,0,0,0c-4.68,3.03-9.49,5.89-14.34,8.36-14.24,7.13-29.74,11.72-45.32,14.89l1.98,9.8c5.56-1.01,11.07-2.22,16.53-3.71,14.44-4.01,28.51-9.81,41.15-17.96,0,0,0,0,0,0v3.67s0,.05,0,.08c-.41,7.28,4.48,12.74,11.21,14.88,8.29,2.45,20.88,1.88,28.08-3.61,4.73-3.51,4.85-8.76,4.48-14.4Zm-18.77-53.58c-.65-2.32-1.66-4.09-3.29-5.86,2.31-.66,4.09-1.66,5.84-3.3,.66,2.31,1.66,4.06,3.28,5.82-.37,.11-.72,.25-1.07,.39-1.79,.65-3.29,1.58-4.76,2.95Zm-10.97,22.82c2.85-7.27,7.23-14.42,12.59-20.12,7.95-7.88,12.74-2.86,7.4,6.17-3.94,6.71-9.5,13.61-15.15,19-2.42,2.06-4.97,4.06-7.57,5.97,.58-3.74,1.44-7.44,2.72-11.02Z"/>
    </g>
  </g>
  <g>
    <g>
      <path class="cls-1" d="M976.68,33.3h-1.76v1.26h15.58c1.04,0,1.39-.07,1.65-.47,.16-.25,.2-.52,.16-.79-.11-.71-.79-1.44-1.18-1.9-1.99-2.31-4.37-4.33-7-5.79-1.85-1.01-3.83-1.78-5.86-2.26-1.29-.3-2.61-.53-3.93-.54-.28,0-1.67-.11-1.66,.32,0,.25,.35,.32,.52,.38,.25,.08,.49,.18,.73,.28,.64,.28,1.25,.62,1.84,1.01,1.58,1.07,3.47,2.83,3.96,4.77,0,.01,0,.03,.01,.04,.46,1.89-1.1,3.68-3.05,3.68Z"/>
      <path class="cls-1" d="M970.33,39.38h-16.44v1.74h.39c1.91,0,3.47,1.55,3.47,3.47v49.29c0,1.93-1.56,3.47-3.47,3.47h-.39v1.74h16.44v-1.74h-.41c-.83,0-1.6-.28-2.2-.79-.77-.63-1.26-1.6-1.26-2.69V44.59c.01-.97,.77-1.74,1.74-1.74h17.47c.97,0,1.76,.79,1.76,1.76v31.71c0,2.95-1.35,5.83-3.82,7.45-.02,.01-.03,.02-.05,.03-3.18,2.05-7.24,2.79-10.97,2.77l.8,2.18c5.18,0,10.69,.12,15.43-2.32,2.89-1.49,5.95-3.81,6.89-7.11,.4-1.42,.42-2.97,.42-4.44v-30.29c0-1.93,1.56-3.47,3.47-3.47h.41v-1.74h-29.67Z"/>
      <path class="cls-1" d="M907.21,32.4c2.44-1.08,4.55-2.77,6.4-4.68,.37-.39,.74-.79,1.09-1.19,1.12-1.26,2.16-2.64,3.12-4.06,.01-.01,.02-.04,.04-.06,.15-.22,.31-.45,.44-.69,.71-1.1,1.39-2.22,2.01-3.36h24.65c1.99,0,3.22,1.73,3.22,1.73h1.73v-6.96h-1.73s-1.23,1.74-3.22,1.74h-22.87c.1-.21,.2-.41,.29-.61,1.1-2.34,2.12-4.54,2.95-7.01,.49-1.52,.83-3.12,.83-3.83h-17.53v1.73h2.6c.63,0,1.13,.53,1.13,1.22,0,.45-.01,.92-.02,1.39-.1,2.43-.32,4.89-.72,7.32-.75,.11-1.5,.26-2.25,.42-5.43,1.18-11.73,4.2-12.66,10.36-.9,6.05,5.7,8.68,10.5,6.55Zm-7.84-7.51c1.89-3.55,6.87-5.08,9.92-5.57,.54-.09,1.03-.17,1.45-.25-.23,.86-.49,1.71-.79,2.54-.87,2.44-2.07,4.89-3.98,6.69-1.31,1.25-4.31,2.74-6.04,1.47-1.44-1.06-1.31-3.47-.56-4.89Z"/>
      <path class="cls-1" d="M930.72,38.02c-5.4,0-10.29,.53-13.77,1.36h-12.5v1.74h.39c1.93,0,3.47,1.55,3.47,3.46v43.66c2.93-.44,5.84-1.06,8.7-1.82v-20.39c3.18,.95,8.13,1.57,13.69,1.57,9.61,0,17.4-1.82,17.4-4.08,0,0,.08-.92,.2-2.38-.98,.61-2.45,1.15-4.39,1.6-3.54,.83-8.23,1.28-13.21,1.28s-9.67-.46-13.21-1.28c-.17-.04-.32-.08-.48-.13v-2c.23,.06,.48,.12,.74,.18,3.46,.81,8.05,1.25,12.96,1.25s9.49-.44,12.95-1.25c1.62-.38,2.95-.83,3.82-1.33,.45-.25,.8-.52,.97-.75,.15-1.72,.33-3.81,.52-5.92-.52,.32-1.14,.61-1.89,.88v-2.75c1.14-.45,1.76-.88,2.04-1.23,.36-4.28,.7-6.2,.77-7.05,.01-.06,.01-.11,.01-.17,0-2.48-8.59-4.49-19.19-4.49Zm.28,22.23c-1.14,0-1.78-.88-1.78-2.11v-2.33c-4.62-.09-8.89-.55-12.2-1.33v-2.7c.07,.02,.16,.04,.25,.06,3.23,.76,7.43,1.22,11.96,1.29v-6.15c0-1.18-.56-1.8-1.29-2.14-3.38-.12-6.57-.45-9.18-.97-.65-.12-1.23-.26-1.73-.38v-1.94c.5-.14,1.08-.26,1.73-.39,3.33-.65,7.57-1.02,11.97-1.02,3.57,0,7.06,.25,10.04,.69-.87,.14-1.89,.28-3,.43-3.61,.48-8.41,.49-8.68,.49h-.01c-.55,0-1.01,.47-1.01,1.06s.45,1.07,.99,1.07h.01c1.04,0,1.89,.91,1.89,2.03v13.16c0,.56,.41,1.02,.92,1.07,.06,0,.68,.05,1.78,.05h.34c-1.31,.06-2.34,.07-3.01,.07Zm14.09-3.58c-.83,.26-2.54,.68-5.39,1.01-3.2,.37-5.54,.39-6.74,.37v-12.14c0-.76-.2-1.49-.54-2.1,1.69-.06,3.76-.18,5.59-.43,2.9-.39,5.23-.8,5.72-.88,.75,.05,1.36,.71,1.36,1.53v12.64Z"/>
      <g>
        <path class="cls-1" d="M921.61,33c-.18,.23-.4,.45-.64,.68-.12,.11-.26,.23-.4,.34,0,0,0,0,0,0-.14,.12,.11,.25,.37,.19,0,0,0,0,0,0,.26-.06,.52-.13,.77-.2,.5-.15,.97-.33,1.4-.53,.43-.2,.82-.43,1.16-.68,.34-.25,.62-.52,.85-.8,.22-.28,.38-.58,.48-.88,.01-.04,.02-.08,.03-.11,.01-.04,.02-.08,.03-.11,.01-.08,.03-.15,.03-.23,.01-.15,.02-.3,0-.46-.01-.15-.05-.3-.09-.45-.05-.15-.1-.3-.17-.44-.07-.15-.15-.29-.24-.43-.04-.07-.09-.14-.15-.21-.05-.07-.11-.14-.16-.21-.69-.85-1.12-1.71-1.11-2.61,0-.45,.12-.91,.35-1.39,.12-.24,.26-.48,.43-.72,.09-.12,.18-.24,.29-.37h0c.11-.13-.2-.25-.44-.18h0c-.25,.08-.49,.16-.71,.25-.46,.18-.87,.39-1.24,.62-.37,.23-.69,.48-.96,.74-.27,.26-.49,.54-.66,.83-.33,.57-.42,1.18-.31,1.77,.11,.59,.43,1.17,.88,1.7,.71,.84,1.08,1.68,.9,2.55-.09,.44-.31,.89-.68,1.34Z"/>
        <path class="cls-1" d="M936.71,32.95c-.18,.23-.4,.45-.65,.68-.12,.11-.25,.23-.4,.34,0,0,0,0,0,0-.14,.12,.11,.25,.37,.19,0,0,0,0,0,0,.26-.06,.52-.13,.77-.2,.5-.15,.97-.33,1.4-.53,.43-.2,.82-.43,1.16-.68,.34-.25,.62-.52,.85-.8,.22-.28,.38-.58,.48-.88,.01-.04,.02-.07,.03-.11,.01-.04,.02-.08,.03-.11,.02-.08,.03-.15,.03-.23,.01-.15,.02-.3,0-.46-.01-.15-.05-.3-.09-.45-.05-.15-.1-.3-.17-.44-.07-.15-.15-.29-.24-.43-.04-.07-.09-.14-.14-.21-.05-.07-.11-.14-.16-.21-.7-.85-1.12-1.71-1.11-2.61,0-.45,.11-.91,.34-1.39,.12-.24,.26-.48,.44-.72,.09-.12,.18-.24,.28-.37h0c.11-.13-.19-.25-.44-.18h0c-.24,.08-.49,.16-.71,.25-.45,.18-.87,.39-1.24,.62-.37,.23-.7,.48-.97,.74-.27,.26-.49,.54-.65,.83-.33,.57-.42,1.18-.31,1.77,.11,.59,.43,1.17,.88,1.7,.71,.84,1.08,1.68,.91,2.55-.09,.44-.31,.89-.68,1.34Z"/>
        <path class="cls-1" d="M929.15,32.98c-.18,.23-.4,.45-.65,.68-.12,.11-.26,.23-.4,.34,0,0,0,0,0,0-.14,.12,.11,.25,.37,.19,0,0,0,0,0,0,.26-.06,.52-.13,.77-.2,.5-.15,.97-.33,1.4-.53,.43-.2,.82-.43,1.16-.68,.34-.25,.62-.52,.85-.8,.22-.28,.38-.58,.48-.88,.01-.04,.02-.08,.03-.11,0-.04,.02-.08,.02-.11,.02-.08,.03-.15,.04-.23,.01-.15,.02-.3,0-.46-.01-.15-.05-.3-.09-.45-.05-.15-.1-.3-.17-.44-.07-.15-.15-.29-.24-.43-.04-.07-.09-.14-.14-.21-.05-.07-.11-.14-.16-.21-.7-.85-1.12-1.71-1.11-2.61,0-.45,.12-.91,.35-1.39,.12-.24,.26-.48,.43-.72,.09-.12,.18-.24,.29-.37h0c.1-.13-.2-.25-.44-.18h0c-.24,.08-.48,.16-.71,.25-.45,.18-.87,.39-1.24,.62-.37,.23-.69,.48-.97,.74-.27,.26-.49,.54-.65,.83-.33,.57-.42,1.18-.31,1.77,.11,.59,.43,1.17,.89,1.7,.71,.84,1.08,1.68,.9,2.55-.09,.44-.31,.89-.68,1.34Z"/>
      </g>
      <path class="cls-1" d="M947.59,77.74c-1.25-.61-2.87-.95-4.59-.95s-3.35,.33-4.59,.95c-2.03,1.01-2.33,2.37-2.33,3.08v1.02l-12.78-10.83c-.63-.5-1.46-1.02-2.45,.02-.61,.64-.5,1.66-.16,2.42,.37,.82,1.03,1.41,1.72,1.98,2.68,2.21,5.3,4.47,7.97,6.71,1.9,1.6,3.81,3.2,5.71,4.81v3.66c0,.71,.31,2.07,2.33,3.08,1.24,.61,2.87,.95,4.59,.95s3.34-.33,4.59-.95c2.03-1.01,2.32-2.37,2.32-3.08v-9.8c0-.71-.29-2.07-2.32-3.08Zm-4.59,4.85c-3.14,0-4.84-1.25-4.84-1.77s1.69-1.77,4.84-1.77,4.82,1.25,4.82,1.77-1.69,1.77-4.82,1.77Z"/>
      <path class="cls-1" d="M976.03,65.11c.07,4.09,.36,8.18,.92,12.23,.56-4.06,.85-8.14,.92-12.23,1.1,.98,2.25,1.91,3.5,2.74-.91-1.37-1.93-2.62-3.02-3.81,2.43-.06,4.87-.25,7.3-.61-2.43-.36-4.86-.55-7.3-.61,1.09-1.19,2.11-2.45,3.02-3.81-1.25,.83-2.4,1.76-3.5,2.74-.07-4.09-.37-8.18-.92-12.23-.55,4.06-.85,8.14-.92,12.23-1.1-.98-2.25-1.91-3.5-2.74,.91,1.37,1.93,2.62,3.02,3.82-2.43,.06-4.87,.25-7.3,.61,2.43,.35,4.86,.55,7.3,.61-1.09,1.19-2.12,2.45-3.02,3.82,1.25-.83,2.4-1.76,3.5-2.74Z"/>
      <path class="cls-1" d="M967.9,22.47c.9-1.33,1.72-2.71,2.49-4.12h24.65c1.98,0,3.21,1.74,3.21,1.74h1.74v-6.96h-1.74s-1.23,1.74-3.21,1.74h-22.87c.1-.21,.2-.41,.3-.61,1.1-2.35,2.13-4.54,2.94-7.01,.5-1.52,.84-3.12,.84-3.83h-17.53v1.74h2.6c.62,0,1.13,.52,1.13,1.21,0,.46-.01,.93-.03,1.39-.18,4.67-.82,9.45-2.39,13.87-.87,2.44-2.08,4.88-3.98,6.69-1.8,1.72-4.17,2.87-6.62,3.27,5.79,1.98,10.48-.22,14.22-3.9,1.58-1.54,2.98-3.35,4.24-5.21Z"/>
      <path class="cls-1" d="M799.24,41.62c-3.11-5.77-9.98-6.67-14.53-10.36-.69-.55-1.3-1.2-1.66-2.01-.72-1.61-.42-3.41,2.55-2.98,4.39,.82,8.95,2.36,13.51,1.5,2.31-.41,4.76-1.23,6.62-3.22,1.89-2.05,2.68-5.45,.91-7.82-3.03-3.87-8.3-4.32-12.42-5.99-3.98-1.44-8.3-3.33-10.36-6.87l-1.36,.8c1.33,2.53,3.31,4.66,5.56,6.42,2.07,1.63,4.44,2.84,6.58,4.38,.76,.55,1.69,1.2,2.31,1.9,.53,.59,1.01,1.07,1.3,1.83,1.06,2.84-1.31,4.81-3.93,5.11-2.26,.25-4.62,.37-6.89,.27-1.39-.06-2.76-.41-4.12,0-.91,.27-1.69,.83-2.17,1.67-1.12,1.95-.33,4.63,1.02,6.26,2.58,3.14,6.04,5.28,8.91,8.13,.85,.86,1.71,1.8,2.18,2.93,.38,.88,.39,1.89,.02,2.79-.47,1.13-1.69,1.82-2.73,2.34-1.63-1.69-3.66-2.9-6.09-2.77-1.5,.14-3.18,1.12-3.46,2.87-.54,4.21,5.24,5.88,8.53,5.79,.29,0,.58-.04,.87-.06,.77,2.38,1.01,4.95,.71,7.39-1.68,11.11-9.71,22.45-18.58,28.88l7.16,8.38c10.26-10.1,20.82-31.4,14.32-45.47,.09,.2,2.68-1.46,2.9-1.63,.87-.69,1.57-1.51,2.15-2.45,1.45-2.34,1.46-5.57,.18-8Zm-14.46,8.42c-.29-.02-.59-.07-.87-.15-.22-.06-.43-.14-.63-.23-.41-.2-.87-.63-.64-1.12,.27-.59,1.1-.81,1.69-.8,1.13,.02,2.14,.59,2.91,1.39,.17,.18,.33,.38,.49,.58-.95,.32-1.98,.41-2.96,.33Z"/>
      <path class="cls-1" d="M919.77,88.97c-18.52,5.68-38.83,4.54-57.19-3.57-4.37-1.93-11.72-4.93-17.91-6.68-2.32-.65-4.68-1.22-7.06-1.67,4.97-6.9,8.21-14.89,9.51-23.36h0s.24,0,.24,0c0,0,0,0,0,0h28.23c3.74,0,5.21,3.13,5.21,3.13h1.74v-10.44h-1.74s-1.47,3.13-5.21,3.13h-27.91s0,0,0,0c.42-6.6,.49-13.56,.49-20.72v-1.23h21.15c3.74,0,5.21,3.13,5.21,3.13h1.74v-10.44h-1.74s-1.47,3.13-5.21,3.13h-21.15V9.34h-.02s.02-.01,.02-.01h0c0-3.27-2.65-5.92-5.92-5.92h-8.73v2.44h1.09c1.91,0,3.46,1.55,3.46,3.46v14.07h-17.49c-3.74,0-5.21-3.13-5.21-3.13h-1.74v10.44h1.74s1.47-3.13,5.21-3.13h17.49v.8c0,8.37-.06,15.32-.22,21.15,0,0,0,0,0,0h-23.53c-3.74,0-5.21-3.13-5.21-3.13h-1.74v10.44h1.74s1.47-3.13,5.21-3.13h23.27c-.54,7.83-3.2,15.77-7.59,22.27-8.03-.74-16.17-.15-23.83,2.41-3.36,1.3-7.09,3.42-7.92,7.45-.97,4.14,2.22,7.72,6.16,8.92,.1,.02,.31,.07,.41,.1,11.01,2.25,20.84-4.9,28.23-12.37,9.08,1.95,25.99,10.1,25.99,10.1,0,0,.06,.02,.09,.04l4.5,2.04c19.53,8.7,37.83,5.79,57.56-1.55,3.99-1.5,7.84-3.34,11.51-5.46l-3.03-2.55c-3.2,1.55-6.53,2.85-9.92,3.89Zm-114.23,2.66l-.32-.06c-2.16-.65-3.96-2.68-3.28-4.93,2.33-6.13,17.64-5.84,23.27-5.39,.17,.02,.36,.05,.53,.06-5.36,6.01-12.2,11.6-20.2,10.32Z"/>
      <g>
        <path class="cls-1" d="M871.44,86.17c2.58-6.23,4.68-8.33,10.91-10.91-6.23-2.58-8.33-4.68-10.91-10.91-2.58,6.23-4.68,8.33-10.91,10.91,6.23,2.58,8.33,4.68,10.91,10.91Z"/>
        <path class="cls-1" d="M866.74,64.68c-3.35-1.39-4.48-2.52-5.87-5.87-1.39,3.35-2.52,4.48-5.87,5.87,3.35,1.39,4.48,2.52,5.87,5.87,1.39-3.35,2.51-4.48,5.87-5.87Z"/>
        <path class="cls-1" d="M880.81,64.68c-.96,0-1.74,.78-1.74,1.74s.78,1.74,1.74,1.74,1.74-.78,1.74-1.74-.78-1.74-1.74-1.74Z"/>
      </g>
      <g>
        <path class="cls-1" d="M677.43,18c0-.97,.79-1.74,1.74-1.74h32.97s.76,0,.76,0h41.77c3.74,0,5.21,3.13,5.21,3.13h1.74V8.94h-1.74s-1.47,3.13-5.21,3.13h-28c-.06-.07-.12-.14-.17-.2-2.75-3.19-6.03-5.98-9.66-7.99-2.55-1.4-5.28-2.46-8.09-3.12-1.78-.42-3.6-.74-5.43-.75-.38,0-2.31-.15-2.3,.44,.01,.34,.48,.44,.72,.53,.34,.11,.68,.25,1.01,.39,.88,.38,1.73,.86,2.54,1.4,2.18,1.47,4.78,3.9,5.46,6.58,0,.02,.01,.04,.02,.06,.23,.94,.08,1.86-.31,2.65h-46.29v2.44h1.09c1.91,0,3.46,1.56,3.46,3.47v20.77c0,40.45-1.52,47.54-7.09,58.01l2.93,2.33c12.05-14.08,12.86-35.89,12.86-59.91V18Z"/>
        <path class="cls-1" d="M707.88,29.4c1.98,0,3.21,1.74,3.21,1.74h1.74v-6.96h-1.74s-1.23,1.74-3.21,1.74h-7.23v-.72c0-1.98,3.48-3.21,3.48-3.21v-1.74h-13.92v1.74s3.48,1.23,3.48,3.21v.72h-7.23c-1.98,0-3.21-1.74-3.21-1.74h-1.74v6.96h1.74s1.23-1.74,3.21-1.74h7.23v13.05c0,1.98-3.48,3.21-3.48,3.21h0v1.74h13.92v-1.74h0s-3.48-1.23-3.48-3.21v-13.05h7.23Z"/>
        <path class="cls-1" d="M689.15,33.47h-3.91c0,7.08-.36,9.52-3.73,11.88l1.51,2.03c5.65-2.36,7.33-5.52,7.52-12.47,.02-.79-.61-1.45-1.4-1.45Z"/>
        <path class="cls-1" d="M758.06,29.4v-5.22h-1.74s-1.23,1.74-3.21,1.74h-7.23v-.72c0-1.98,3.48-3.21,3.48-3.21v-1.74h-13.92v1.74s3.48,1.23,3.48,3.21v.72h-7.23c-1.98,0-3.21-1.74-3.21-1.74h-1.74v6.96h1.74s1.22-1.74,3.21-1.74h7.23v13.05c0,1.98-3.48,3.21-3.48,3.21h0v1.74h13.92v-1.74h0s-3.48-1.23-3.48-3.21v-13.05h7.23c1.98,0,3.21,1.74,3.21,1.74h1.74v-1.74Z"/>
        <path class="cls-1" d="M750.43,33.47c-.79,0-1.42,.66-1.4,1.45,.19,6.95,1.87,10.11,7.52,12.47l1.51-2.03c-3.37-2.36-3.73-4.8-3.73-11.88h-3.91Z"/>
        <path class="cls-1" d="M734.38,33.47h-3.91c0,7.08-.36,9.52-3.73,11.88l1.51,2.03c5.65-2.36,7.33-5.52,7.52-12.47,.02-.79-.61-1.45-1.4-1.45Z"/>
        <path class="cls-1" d="M721.01,30.27c0,.77,.62,1.39,1.39,1.39s1.39-.62,1.39-1.39-.62-1.39-1.39-1.39-1.39,.62-1.39,1.39Z"/>
        <circle class="cls-1" cx="718.4" cy="24.18" r="1.39"/>
        <path class="cls-1" d="M693.38,78.04h2.9c.62,0,1.04,.62,.83,1.21-1.53,4.24-4.08,8.25-7.83,10.68-4.86,3.15-11.11,4.28-16.82,4.25l1.21,2.28c7.96,0,16.41,.2,23.68-3.56,5.47-2.83,9.99-7.46,12.72-12.98,.56-1.13,.85-2.36,.85-3.62h-17.53v1.74Z"/>
        <path class="cls-1" d="M761.23,80.67c-1.46-.98-5.34-2.9-10-3.7,1.13,.56,2.12,1.17,2.86,2.21,1.16,1.62,1.77,3.65,1.37,5.63-1.25,6.15-9.55,6.76-14.58,6.65-.04,0-.08,0-.12,0-4.91-.12-9.86-1.76-13.36-5.31-3.41-3.45-3.44-8.35-3.58-12.8h34.25v-1.74h-.4c-1.92,0-3.47-1.55-3.47-3.47v-12.54c0-1.92,1.55-3.47,3.47-3.47h.4v-1.74h-37.24c.48-.32,.94-.7,1.37-1.12,3.53-3.53,3.53-9.26,0-12.79-2.48-2.48-6.03-3.22-9.15-2.22,1.3,.08,2.56,.61,3.55,1.6,2.15,2.15,2.15,5.65,0,7.81-2.16,2.16-5.66,2.16-7.81,0-.99-.99-1.52-2.25-1.6-3.55-.99,3.12-.26,6.67,2.22,9.15,.43,.43,.89,.8,1.37,1.12h-29.24v1.74h.4c1.92,0,3.47,1.55,3.47,3.47v12.54c0,1.92-1.55,3.47-3.47,3.47h-.4v1.74h31.6c.2,4.17,.97,9.13,3.04,12.73,3.57,6.19,10.18,9.56,17.03,10.78,3.49,.62,7.06,.73,10.59,.44,4.02-.33,8.18-.79,11.95-2.36,3.1-1.29,7.31-3.13,8.87-6.33,1.58-3.26-.83-6.23-3.36-7.93Zm-45.44-11.83c0,.95-.77,1.73-1.73,1.73h-18.93c-.96,0-1.75-.78-1.75-1.75v-5.91h12.9c1.79,0,2.89,1.57,2.89,1.57h1.74v-5.22h-1.74s-1.1,1.57-2.89,1.57h-12.9v-5.91c0-.96,.78-1.75,1.75-1.75h18.93c.95,0,1.73,.77,1.73,1.73v13.95Zm8-13.95c0-.95,.77-1.73,1.73-1.73h18.93c.96,0,1.75,.78,1.75,1.75v5.91h-12.9c-1.79,0-2.89-1.57-2.89-1.57h-1.74v5.22h1.74s1.1-1.57,2.89-1.57h12.9v5.91c0,.96-.78,1.75-1.75,1.75h-18.93c-.95,0-1.73-.77-1.73-1.73v-13.95Z"/>
        <path class="cls-1" d="M747.56,79.61c1.3,.17,2.44,.67,3.27,1.34-1.15-2.08-3.8-3.74-7.06-4.17-4.65-.61-8.77,1.53-9.2,4.78-.43,3.25,2.99,6.38,7.65,7,3.26,.43,6.25-.5,7.9-2.2-.98,.44-2.2,.62-3.5,.45-2.84-.37-4.92-2.29-4.66-4.27,.26-1.99,2.77-3.3,5.61-2.92Z"/>
        <path class="cls-1" d="M710.16,40.89c.86-2.09,1.57-2.79,3.65-3.65-2.09-.86-2.79-1.57-3.65-3.65-.86,2.09-1.57,2.79-3.65,3.65,2.09,.86,2.79,1.57,3.65,3.65Z"/>
      </g>
    </g>
    <g>
      <g>
        <path class="cls-1" d="M621.47,54.23c0-2.71-2.14-5.19-5.7-7.14,.57,.84,.88,1.74,.88,2.66,.02,4.95-8.63,9.02-19.61,9.44h-3.37c-10.95-.33-19.59-4.33-19.61-9.27,0-.93,.3-1.82,.86-2.67-3.54,1.98-5.65,4.48-5.64,7.19,.02,6.08,10.72,11,24.25,11.38v.03s2.81-.01,2.81-.01h0s0,0,0,0h2.7s0-.12,0-.12c12.7-.83,22.46-5.68,22.43-11.49Z"/>
        <path class="cls-1" d="M582.74,40.57c.75,1.87,1.15,3.75,.96,5.71-.09,.98-.33,1.98-.72,3-.19,.51-.42,1.01-.68,1.52-.13,.25-.27,.51-.42,.76,0,0,0,0,0,0-.15,.26,.12,.56,.39,.43,0,0,0,0,0,0,.28-.14,.56-.29,.82-.46,.53-.34,1.03-.74,1.48-1.2,.45-.46,.87-.97,1.22-1.52,.36-.56,.66-1.16,.9-1.79,.24-.64,.4-1.3,.51-1.98,.01-.08,.02-.17,.03-.25,.01-.08,.02-.17,.03-.26,.02-.17,.03-.34,.04-.51,.01-.34,.02-.68,0-1.02-.01-.34-.05-.68-.09-1.01-.05-.33-.11-.67-.18-.99-.07-.33-.16-.65-.26-.97-.05-.16-.1-.32-.15-.47-.06-.15-.11-.31-.17-.46-.74-1.91-1.18-3.83-1.18-5.85,0-1.01,.12-2.04,.37-3.1,.12-.53,.27-1.07,.46-1.61,.09-.27,.19-.55,.3-.82h0c.11-.3-.21-.56-.47-.4h0c-.26,.18-.52,.36-.76,.56-.48,.41-.92,.87-1.31,1.38-.39,.51-.73,1.06-1.02,1.65-.29,.59-.52,1.21-.69,1.85-.35,1.28-.45,2.64-.32,3.97,.12,1.33,.46,2.61,.93,3.81Z"/>
        <path class="cls-1" d="M604.26,40.48c.75,1.87,1.15,3.75,.96,5.71-.09,.98-.33,1.98-.72,3-.19,.51-.42,1.01-.69,1.52-.13,.25-.27,.51-.42,.76,0,0,0,0,0,0-.15,.26,.12,.56,.39,.43,0,0,0,0,0,0,.28-.14,.55-.29,.82-.46,.53-.34,1.03-.74,1.48-1.2,.45-.45,.87-.97,1.22-1.52,.36-.56,.66-1.16,.9-1.79,.24-.63,.4-1.3,.51-1.98,.01-.08,.02-.17,.03-.25,.01-.08,.02-.17,.03-.25,.02-.17,.03-.34,.04-.51,.01-.34,.02-.68,0-1.02-.02-.34-.05-.68-.1-1.01-.05-.33-.1-.67-.18-.99-.07-.33-.16-.65-.26-.97-.05-.16-.1-.32-.15-.47-.06-.15-.11-.31-.17-.46-.74-1.91-1.19-3.83-1.18-5.85,0-1.01,.12-2.04,.36-3.1,.13-.53,.28-1.07,.46-1.61,.09-.27,.19-.55,.3-.82h0c.11-.3-.21-.56-.47-.4h0c-.26,.18-.52,.36-.76,.57-.48,.41-.92,.87-1.31,1.38-.39,.51-.74,1.06-1.02,1.65-.29,.59-.52,1.21-.69,1.85-.35,1.28-.45,2.64-.33,3.97,.12,1.33,.46,2.61,.93,3.82Z"/>
        <path class="cls-1" d="M594.38,40.52c.75,1.88,1.14,3.75,.96,5.71-.09,.98-.33,1.98-.72,3-.19,.51-.42,1.01-.69,1.52-.13,.25-.27,.51-.42,.76,0,0,0,0,0,0-.15,.26,.12,.56,.39,.43,0,0,0,0,0,0,.28-.14,.55-.29,.82-.46,.53-.34,1.02-.74,1.48-1.2,.46-.46,.87-.97,1.23-1.52,.36-.56,.66-1.16,.9-1.79,.24-.63,.4-1.3,.51-1.98,.01-.08,.02-.17,.03-.25,.01-.09,.02-.17,.03-.25,.02-.17,.03-.34,.04-.51,.01-.34,.02-.68,0-1.02-.02-.34-.05-.68-.1-1.01-.05-.33-.1-.67-.18-.99-.07-.33-.16-.65-.26-.97-.05-.16-.1-.32-.15-.47-.05-.15-.11-.31-.17-.46-.74-1.91-1.19-3.83-1.18-5.85,0-1.01,.12-2.04,.37-3.1,.12-.53,.28-1.07,.46-1.61,.09-.27,.19-.54,.3-.82h0c.11-.3-.21-.56-.47-.4h0c-.26,.18-.51,.36-.75,.57-.48,.41-.92,.87-1.31,1.38-.39,.51-.74,1.06-1.02,1.65-.29,.59-.52,1.21-.69,1.85-.35,1.28-.45,2.64-.33,3.97,.12,1.33,.46,2.62,.94,3.81Z"/>
      </g>
      <path class="cls-1" d="M550.14,10.45h.39c1.91,0,3.47,1.56,3.47,3.47V87.01c0,1.91-1.56,3.47-3.47,3.47h-.39v2.43h90.47v-2.43h-.39c-1.93,0-3.47-1.56-3.47-3.47V13.92c0-1.91,1.55-3.47,3.47-3.47h.39v-2.43h-90.47v2.43Zm13.26,3.49c0-.96,.79-1.74,1.76-1.74h60.44c.97,0,1.74,.79,1.74,1.74V87c0,.97-.77,1.74-1.74,1.74h-60.44c-.97,0-1.76-.77-1.76-1.74V13.94Z"/>
      <path class="cls-1" d="M517.79,86.46c-1.17-.12-2.39-.25-3.68-.39-5.52-.71-12.75-2.16-19.47-3.63,10.8-5.16,22-10.62,25.83-13.04,.04-.02,.06-.05,.09-.06,.18-.12,.34-.27,.47-.43,.18-.23,.28-.53,.26-.86-.04-.45-.27-.71-.99-1.14-.11-.06-.26-.14-.41-.22l-15.05-8.25-.09,.15-.81,1.37c2.22,1.26,2.88,4.15,1.37,6.09h0s-39.81,0-39.81,0c-1.98,0-3.21-1.74-3.21-1.74h-1.74v6.96h1.74s1.22-1.74,3.21-1.74h36.06s-.02,.02-.08,.06c-.01,.01-.02,.02-.04,.03-.95,.67-7.83,5.49-17.04,10.46h0c-3.27-.79-5.9-1.44-7.4-1.82-.29-.07-.59-.15-.87-.22-.26-.07-.44-.11-.5-.12-10.48-2.49-19.21-1.36-25.72,.05-8.48,1.87-12.83,5.22-13.01,5.38-2.31,1.83-2.25,3.67-2,4.6,.66,2.57,4.01,4.59,9.48,5.68,.2,.04,2.9,.55,7.27,.55,3.08,0,7.01-.26,11.45-1.1,7.4-1.13,15.26-3.68,22.72-6.74,15.5,5.35,27.97,12.32,27.97,12.32l16.53-11.29s-4.1-.14-10.52-.72c-.56-.06-1.23-.14-2.01-.18Zm-54.02,2.64c-3.83,1.17-13.81,3.72-21.59,1.44h0s0,0,0,0c-3.14-.99-4.57-2.27-4.8-3.18-.21-.83,.5-1.61,1.18-2.15,.05-.05,5.73-4.79,16.95-4.87h.31c7.06-.1,14.68,1.17,22.1,3.05-4.52,2.17-9.34,4.2-14.14,5.71Z"/>
      <g>
        <path class="cls-1" d="M498.94,43.4c0,1.44,1.17,2.61,2.61,2.61s2.61-1.17,2.61-2.61-1.17-2.61-2.61-2.61-2.61,1.17-2.61,2.61Z"/>
        <path class="cls-1" d="M524.98,3.41s-1.47,3.13-5.21,3.13h-83.53c-3.74,0-5.21-3.13-5.21-3.13h-1.74V13.85h1.74s1.47-3.13,5.21-3.13h30.67c.96,.1,1.92,.21,2.81,.56,1.79,.71,2.8,2.41,2.15,4.3-.83,2.41-3.04,4.3-5.41,5.23h-33.69v1.74h.41c1.91,0,3.47,1.55,3.47,3.46v24.38c0,1.91-1.56,3.47-3.47,3.47h-.41v1.74h26.48c-3.09,3.7-7.07,6.63-11.43,8.62-5.39,2.48-11.36,3.59-17.21,3.35l-.02,10.32c13.96-1.58,27.5-9.65,33.45-22.29h59.19v-1.74h-.39c-1.91,0-3.47-1.56-3.47-3.47V26.01c0-1.91,1.56-3.46,3.47-3.46h.39v-1.74h-51.14c5.42-1.55,10.24-5.08,13.14-10.09h34.54c3.74,0,5.21,3.13,5.21,3.13h1.74V3.41h-1.74Zm-14.31,46.97c0,.96-.77,1.74-1.74,1.74h-61.84c-.96,0-1.74-.79-1.74-1.74v-5.94h12c1.89,1.11,2.83,2.41,3.92,5.05,1.09-2.63,2.03-3.94,3.92-5.05h19.37c1.79,0,2.89,1.57,2.89,1.57h1.74v-5.22h-1.74s-1.1,1.57-2.89,1.57h-19.37c-1.89-1.11-2.83-2.41-3.92-5.05-1.09,2.63-2.03,3.94-3.92,5.05h-12v-8.35h40.9c3.83,1.93,5.47,3.99,7.43,8.7,1.95-4.71,3.6-6.78,7.43-8.7h9.57v16.37Zm-1.74-26.1c.97,0,1.74,.79,1.74,1.76v5.88h-9.57c-3.54-1.77-5.2-3.66-6.97-7.63h14.8Zm-12,7.63c.47,.37,.96,.71,1.5,1.04-.54,.33-1.03,.68-1.5,1.04-1.3,1.02-2.32,2.2-3.25,3.71-.93-1.51-1.95-2.69-3.25-3.71-.47-.37-.96-.71-1.5-1.04,.54-.33,1.03-.68,1.5-1.04,1.3-1.01,2.32-2.2,3.25-3.71,.93,1.51,1.95,2.7,3.25,3.71Zm-3.71-7.63c-1.77,3.98-3.44,5.87-6.97,7.63h-40.9v-5.88c0-.97,.79-1.76,1.74-1.76h46.13Z"/>
      </g>
    </g>
  </g>
</svg>