<?xml version="1.0" encoding="utf-8"?>
<!-- Generator: Adobe Illustrator 27.0.0, SVG Export Plug-In . SVG Version: 6.00 Build 0)  -->
<svg version="1.1" id="圖層_1" xmlns="http://www.w3.org/2000/svg" xmlns:xlink="http://www.w3.org/1999/xlink" x="0px" y="0px"
	 viewBox="0 0 32 32" style="enable-background:new 0 0 32 32;" xml:space="preserve">
<style type="text/css">
	.st0{fill:#FFFFFF;}
</style>
<path class="st0" d="M21.1,6.6c0.2-0.2,0.5-0.4,0.8-0.5c0.3-0.1,0.7-0.1,1,0c0.3,0.1,0.6,0.2,0.9,0.4C24,6.7,24.2,7,24.3,7.3l6.6,18
	C31,25.6,31,26,31,26.3c0,0.3-0.2,0.6-0.3,0.9c-0.2,0.3-0.4,0.5-0.7,0.6C29.7,27.9,29.4,28,29,28c-0.2,0-0.5,0-0.7-0.1l-18-6.6
	C10,21.2,9.7,21,9.5,20.8c-0.2-0.2-0.4-0.5-0.4-0.9c-0.1-0.3-0.1-0.7,0-1c0.1-0.3,0.3-0.6,0.5-0.8L21.1,6.6z M26.9,20.1l-2.4-6.6
	l-7.9,7.9l6.6,2.4L26.9,20.1z M15,9c0-0.7-0.2-1.3-0.5-1.9C13.9,5.7,12.6,5,11,5c-0.8,0-1.4-0.3-1.7-0.9C9.1,3.8,9,3.4,9,3
	c0-0.3-0.1-0.5-0.3-0.7C8.5,2.1,8.3,2,8,2C7.7,2,7.5,2.1,7.3,2.3C7.1,2.5,7,2.7,7,3c0,1.6,1.1,4,4,4c0.8,0,1.4,0.3,1.7,0.9
	C12.9,8.2,13,8.6,13,9c0,0.1,0,0.3,0.1,0.4c0.1,0.1,0.1,0.2,0.2,0.3c0.1,0.1,0.2,0.2,0.3,0.2S13.9,10,14,10c0.1,0,0.3,0,0.4-0.1
	c0.1-0.1,0.2-0.1,0.3-0.2c0.1-0.1,0.2-0.2,0.2-0.3C15,9.3,15,9.1,15,9z M18,5V2c0-0.3-0.1-0.5-0.3-0.7C17.5,1.1,17.3,1,17,1
	s-0.5,0.1-0.7,0.3C16.1,1.5,16,1.7,16,2v3c0,0.3,0.1,0.5,0.3,0.7C16.5,5.9,16.7,6,17,6s0.5-0.1,0.7-0.3C17.9,5.5,18,5.3,18,5z
	 M5.3,15.3c-0.1,0.1-0.2,0.2-0.2,0.3C5,15.7,5,15.9,5,16c0,0.1,0,0.3,0.1,0.4c0.1,0.1,0.1,0.2,0.2,0.3c0.1,0.1,0.2,0.2,0.3,0.2
	C5.7,17,5.9,17,6,17c0.1,0,0.3,0,0.4-0.1c0.1-0.1,0.2-0.1,0.3-0.2l2-2C8.9,14.5,9,14.3,9,14c0-0.3-0.1-0.5-0.3-0.7
	C8.5,13.1,8.3,13,8,13s-0.5,0.1-0.7,0.3L5.3,15.3z M4.7,9.9l3,1C7.9,11,8.2,11,8.5,10.9c0.2-0.1,0.4-0.3,0.5-0.6
	C9,10.1,9,9.8,8.9,9.6C8.8,9.3,8.6,9.1,8.3,9.1l-3-1C5.1,8,4.8,8,4.6,8.1C4.3,8.2,4.1,8.4,4.1,8.7C4,8.9,4,9.2,4.1,9.4
	C4.2,9.7,4.4,9.9,4.7,9.9z"/>
</svg>
