<svg width="28" height="28" viewBox="0 0 28 28" fill="none" xmlns="http://www.w3.org/2000/svg">
<path d="M27.405 8.54762L23.8975 11.5076L24.9675 15.9314C25.0451 16.2516 25.0261 16.5877 24.9129 16.8972C24.7996 17.2066 24.5972 17.4756 24.3312 17.6701C24.0621 17.8679 23.7405 17.9816 23.4068 17.997C23.0732 18.0123 22.7424 17.9286 22.4562 17.7564L18.5 15.3751L14.5437 17.7576C14.2577 17.9303 13.9269 18.0143 13.5932 17.999C13.2594 17.9836 12.9377 17.8696 12.6687 17.6714C12.4023 17.4772 12.1994 17.2083 12.086 16.8988C11.9725 16.5893 11.9534 16.253 12.0312 15.9326L13.1012 11.5089L9.595 8.54762C9.34108 8.33299 9.15683 8.0476 9.06576 7.72784C8.97468 7.40808 8.9809 7.06844 9.08362 6.75223C9.18635 6.43602 9.38091 6.15756 9.64252 5.95237C9.90413 5.74718 10.2209 5.62455 10.5525 5.60012L15.17 5.23512L16.9463 1.02762C17.076 0.722929 17.2925 0.463108 17.5687 0.280483C17.845 0.0978576 18.1688 0.000488281 18.5 0.000488281C18.8312 0.000488281 19.155 0.0978576 19.4313 0.280483C19.7075 0.463108 19.924 0.722929 20.0537 1.02762L21.83 5.23512L26.4475 5.60012C26.7791 5.62455 27.0959 5.74718 27.3575 5.95237C27.6191 6.15756 27.8137 6.43602 27.9164 6.75223C28.0191 7.06844 28.0253 7.40808 27.9342 7.72784C27.8432 8.0476 27.6589 8.33299 27.405 8.54762ZM9.01375 11.9864C8.92088 11.8934 8.81059 11.8196 8.68919 11.7693C8.56779 11.719 8.43766 11.6931 8.30625 11.6931C8.17483 11.6931 8.04471 11.719 7.92331 11.7693C7.80191 11.8196 7.69162 11.8934 7.59875 11.9864L0.292499 19.2926C0.104859 19.4803 -0.000556946 19.7348 -0.000556946 20.0001C-0.000556946 20.2655 0.104859 20.52 0.292499 20.7076C0.48014 20.8953 0.734635 21.0007 0.999999 21.0007C1.26536 21.0007 1.51986 20.8953 1.7075 20.7076L9.01375 13.4014C9.10673 13.3085 9.18048 13.1982 9.23081 13.0768C9.28113 12.9554 9.30704 12.8253 9.30704 12.6939C9.30704 12.5625 9.28113 12.4323 9.23081 12.3109C9.18048 12.1895 9.10673 12.0792 9.01375 11.9864ZM8.95125 19.6351L2.2925 26.2926C2.19959 26.3855 2.12589 26.4958 2.07561 26.6172C2.02532 26.7386 1.99944 26.8687 1.99944 27.0001C1.99944 27.1315 2.02532 27.2616 2.07561 27.383C2.12589 27.5044 2.19959 27.6147 2.2925 27.7076C2.48014 27.8953 2.73464 28.0007 3 28.0007C3.13139 28.0007 3.2615 27.9748 3.3829 27.9245C3.50429 27.8742 3.61459 27.8005 3.7075 27.7076L10.365 21.0489C10.5446 20.8598 10.6433 20.6081 10.6399 20.3473C10.6366 20.0865 10.5315 19.8374 10.3471 19.653C10.1627 19.4686 9.91358 19.3635 9.65282 19.3602C9.39206 19.3568 9.14031 19.4555 8.95125 19.6351ZM18.0763 19.5101L11.29 26.2951C11.1971 26.388 11.1234 26.4983 11.0731 26.6197C11.0228 26.7411 10.9969 26.8712 10.9969 27.0026C10.9969 27.134 11.0228 27.2641 11.0731 27.3855C11.1234 27.5069 11.1971 27.6172 11.29 27.7101C11.4776 27.8978 11.7321 28.0032 11.9975 28.0032C12.1289 28.0032 12.259 27.9773 12.3804 27.927C12.5018 27.8767 12.6121 27.803 12.705 27.7101L19.49 20.9251C19.6776 20.7376 19.7831 20.4833 19.7832 20.2181C19.7834 19.9528 19.6781 19.6984 19.4906 19.5107C19.3032 19.3231 19.0488 19.2176 18.7836 19.2175C18.5183 19.2174 18.2639 19.3226 18.0763 19.5101Z" fill="white"/>
</svg>
