<svg width="32" height="32" viewBox="0 0 32 32" fill="none" xmlns="http://www.w3.org/2000/svg">
<path d="M23.5999 17.4057V9.83229C19.8658 10.8849 16.1484 11.9376 12.4032 12.9957C12.4032 13.1176 12.4032 13.2395 12.4032 13.3614C12.4032 16.9957 12.4032 20.6245 12.4032 24.2589C12.4032 26.3586 10.7467 28.0096 8.65254 27.9985C6.80767 27.9874 5.25642 26.5691 5.02373 24.6744C4.81321 22.9459 6.0265 21.1841 7.73842 20.7353C8.6193 20.5026 9.46141 20.5858 10.2814 20.9736C10.3589 21.0123 10.442 21.0456 10.5528 21.0954V20.7021C10.5528 16.7409 10.5528 12.7797 10.5528 8.81844C10.5528 8.09822 10.7412 7.84891 11.4282 7.65501C15.6553 6.45833 19.8769 5.26165 24.0985 4.06498C24.7633 3.87661 25.273 4.10376 25.4282 4.66886C25.4559 4.77412 25.4614 4.89046 25.4614 5.00127C25.4614 10.2146 25.4614 15.4279 25.4614 20.6412C25.4614 22.5414 23.9323 24.1647 22.0376 24.2977C20.1373 24.4306 18.4143 23.0733 18.1318 21.2063C17.9102 19.7603 18.3866 18.5636 19.539 17.6827C20.7135 16.7852 22.0099 16.6689 23.3617 17.2894C23.4337 17.3226 23.5057 17.3614 23.611 17.4112L23.5999 17.4057Z" fill="#109D91"/>
</svg>
