<svg width="32" height="32" viewBox="0 0 32 32" fill="none" xmlns="http://www.w3.org/2000/svg">
<path d="M29.405 10.5476L25.8975 13.5076L26.9675 17.9314C27.0451 18.2516 27.0261 18.5877 26.9129 18.8972C26.7996 19.2066 26.5972 19.4756 26.3312 19.6701C26.0621 19.8679 25.7405 19.9816 25.4068 19.997C25.0732 20.0123 24.7424 19.9286 24.4562 19.7564L20.5 17.3751L16.5437 19.7576C16.2577 19.9303 15.9269 20.0143 15.5932 19.999C15.2594 19.9836 14.9377 19.8696 14.6687 19.6714C14.4023 19.4772 14.1994 19.2083 14.086 18.8988C13.9725 18.5893 13.9534 18.253 14.0312 17.9326L15.1012 13.5089L11.595 10.5476C11.3411 10.333 11.1568 10.0476 11.0658 9.72784C10.9747 9.40808 10.9809 9.06844 11.0836 8.75223C11.1863 8.43602 11.3809 8.15756 11.6425 7.95237C11.9041 7.74718 12.2209 7.62455 12.5525 7.60012L17.17 7.23512L18.9463 3.02762C19.076 2.72293 19.2925 2.46311 19.5687 2.28048C19.845 2.09786 20.1688 2.00049 20.5 2.00049C20.8312 2.00049 21.155 2.09786 21.4313 2.28048C21.7075 2.46311 21.924 2.72293 22.0537 3.02762L23.83 7.23512L28.4475 7.60012C28.7791 7.62455 29.0959 7.74718 29.3575 7.95237C29.6191 8.15756 29.8137 8.43602 29.9164 8.75223C30.0191 9.06844 30.0253 9.40808 29.9342 9.72784C29.8432 10.0476 29.6589 10.333 29.405 10.5476ZM11.0137 13.9864C10.9209 13.8934 10.8106 13.8196 10.6892 13.7693C10.5678 13.719 10.4377 13.6931 10.3062 13.6931C10.1748 13.6931 10.0447 13.719 9.92331 13.7693C9.80191 13.8196 9.69162 13.8934 9.59875 13.9864L2.2925 21.2926C2.10486 21.4803 1.99944 21.7348 1.99944 22.0001C1.99944 22.2655 2.10486 22.52 2.2925 22.7076C2.48014 22.8953 2.73464 23.0007 3 23.0007C3.26536 23.0007 3.51986 22.8953 3.7075 22.7076L11.0137 15.4014C11.1067 15.3085 11.1805 15.1982 11.2308 15.0768C11.2811 14.9554 11.307 14.8253 11.307 14.6939C11.307 14.5625 11.2811 14.4323 11.2308 14.3109C11.1805 14.1895 11.1067 14.0792 11.0137 13.9864ZM10.9512 21.6351L4.2925 28.2926C4.19959 28.3855 4.12589 28.4958 4.07561 28.6172C4.02532 28.7386 3.99944 28.8687 3.99944 29.0001C3.99944 29.1315 4.02532 29.2616 4.07561 29.383C4.12589 29.5044 4.19959 29.6147 4.2925 29.7076C4.48014 29.8953 4.73464 30.0007 5 30.0007C5.13139 30.0007 5.2615 29.9748 5.3829 29.9245C5.50429 29.8742 5.61459 29.8005 5.7075 29.7076L12.365 23.0489C12.5446 22.8598 12.6433 22.6081 12.6399 22.3473C12.6366 22.0865 12.5315 21.8374 12.3471 21.653C12.1627 21.4686 11.9136 21.3635 11.6528 21.3602C11.3921 21.3568 11.1403 21.4555 10.9512 21.6351ZM20.0763 21.5101L13.29 28.2951C13.1971 28.388 13.1234 28.4983 13.0731 28.6197C13.0228 28.7411 12.9969 28.8712 12.9969 29.0026C12.9969 29.134 13.0228 29.2641 13.0731 29.3855C13.1234 29.5069 13.1971 29.6172 13.29 29.7101C13.4776 29.8978 13.7321 30.0032 13.9975 30.0032C14.1289 30.0032 14.259 29.9773 14.3804 29.927C14.5018 29.8767 14.6121 29.803 14.705 29.7101L21.49 22.9251C21.6776 22.7376 21.7831 22.4833 21.7832 22.2181C21.7834 21.9528 21.6781 21.6984 21.4906 21.5107C21.3032 21.3231 21.0488 21.2176 20.7836 21.2175C20.5183 21.2174 20.2639 21.3226 20.0763 21.5101Z" fill="white"/>
</svg>
