<svg width="32" height="32" viewBox="0 0 32 32" fill="none" xmlns="http://www.w3.org/2000/svg">
<path d="M13.9799 20.5856C13.9799 20.4007 13.9799 20.2696 13.9799 20.1384C13.9799 15.1357 13.9799 10.1329 13.9799 5.13019C13.9799 4.79031 14.0574 4.49217 14.3078 4.26559C14.7729 3.84224 15.4407 3.93168 15.8283 4.48621C16.3411 5.23155 16.8241 6.00075 17.3548 6.7282C18.6129 8.45143 20.2348 9.79304 21.9043 11.087C23.5977 12.3988 24.2715 14.1578 23.7647 16.2447C23.2758 18.2721 21.9103 19.4944 19.877 19.9595C19.5908 20.0251 19.2867 20.037 18.9886 20.043C18.4042 20.0489 17.963 19.6196 17.951 19.0651C17.9451 18.5106 18.3744 18.0812 18.9587 18.0574C20.36 17.9978 21.4512 17.163 21.8149 15.8571C22.1488 14.6646 21.7314 13.4303 20.7237 12.685C19.1436 11.5103 17.6469 10.2462 16.359 8.7436C16.2457 8.61242 16.1324 8.48124 15.9654 8.28447C15.9654 8.48124 15.9654 8.6005 15.9654 8.71379C15.9654 13.806 15.9654 18.8981 15.9654 23.9844C15.9654 26.2383 14.1766 28.0092 11.9168 27.9973C9.93712 27.9853 8.25563 26.435 8.02309 24.4077C7.80843 22.5414 9.11427 20.6571 10.9568 20.1742C12.0002 19.8999 12.9841 20.0489 13.9799 20.5856Z" fill="#3585FF"/>
</svg>
