<svg width="52" height="52" viewBox="0 0 52 52" fill="none" xmlns="http://www.w3.org/2000/svg">
<circle opacity="0.2" cx="26" cy="26" r="26" fill="#6F4A8A"/>
<path fill-rule="evenodd" clip-rule="evenodd" d="M38.185 25H39.75C39.9489 25 40.1397 25.079 40.2803 25.2197C40.421 25.3603 40.5 25.5511 40.5 25.75C40.5 25.9489 40.421 26.1397 40.2803 26.2803C40.1397 26.421 39.9489 26.5 39.75 26.5H38.5V36.75C38.5 37.2141 38.3156 37.6593 37.9874 37.9874C37.6592 38.3156 37.2141 38.5 36.75 38.5H33.75C33.2859 38.5 32.8408 38.3156 32.5126 37.9874C32.1844 37.6593 32 37.2141 32 36.75V34.5H19.5V36.75C19.5 37.2141 19.3156 37.6593 18.9874 37.9874C18.6592 38.3156 18.2141 38.5 17.75 38.5H14.75C14.2859 38.5 13.8408 38.3156 13.5126 37.9874C13.1844 37.6593 13 37.2141 13 36.75V26.5H11.75C11.5511 26.5 11.3603 26.421 11.2197 26.2803C11.079 26.1397 11 25.9489 11 25.75C11 25.5511 11.079 25.3603 11.2197 25.2197C11.3603 25.079 11.5511 25 11.75 25H13.3112L16.8113 18.875C16.9651 18.6085 17.1865 18.3873 17.4532 18.2337C17.7198 18.08 18.0223 17.9994 18.33 18H21.2425L22.8025 14.1C22.9314 13.7746 23.1554 13.4955 23.4453 13.2993C23.7352 13.1031 24.0775 12.9988 24.4275 13H27.0725C27.4225 12.9988 27.7648 13.1031 28.0547 13.2993C28.3446 13.4955 28.5686 13.7746 28.6975 14.1L30.2537 18.0063H33.1663C33.474 18.0057 33.7764 18.0863 34.0431 18.2399C34.3097 18.3935 34.5311 18.6148 34.685 18.8813L38.185 25ZM18.2051 19.5336C18.1672 19.5555 18.1357 19.587 18.1138 19.625L15.0425 25H36.4575L33.3862 19.625C33.3643 19.587 33.3328 19.5555 33.2949 19.5336C33.2569 19.5116 33.2138 19.5001 33.17 19.5H18.33C18.2862 19.5001 18.2431 19.5116 18.2051 19.5336ZM17.7524 37H14.7476L14.75 37H17.75L17.7524 37ZM33.7476 37H36.7524L36.75 37H33.75L33.7476 37ZM14.5 33H37V26.5H14.5V33ZM17.2197 29.2197C17.079 29.3603 17 29.5511 17 29.75C17 29.9489 17.079 30.1397 17.2197 30.2803C17.3603 30.421 17.5511 30.5 17.75 30.5H19.75C19.9489 30.5 20.1397 30.421 20.2803 30.2803C20.421 30.1397 20.5 29.9489 20.5 29.75C20.5 29.5511 20.421 29.3603 20.2803 29.2197C20.1397 29.079 19.9489 29 19.75 29H17.75C17.5511 29 17.3603 29.079 17.2197 29.2197ZM31.2197 29.2197C31.079 29.3603 31 29.5511 31 29.75C31 29.9489 31.079 30.1397 31.2197 30.2803C31.3603 30.421 31.5511 30.5 31.75 30.5H33.75C33.9489 30.5 34.1397 30.421 34.2803 30.2803C34.421 30.1397 34.5 29.9489 34.5 29.75C34.5 29.5511 34.421 29.3603 34.2803 29.2197C34.1397 29.079 33.9489 29 33.75 29H31.75C31.5511 29 31.3603 29.079 31.2197 29.2197Z" fill="#6F4A8A"/>
</svg>
