<svg width="16" height="24" viewBox="0 0 16 24" fill="none" xmlns="http://www.w3.org/2000/svg">
<path d="M5.97986 16.5856C5.97986 16.4007 5.97986 16.2696 5.97986 16.1384C5.97986 11.1357 5.97986 6.13292 5.97986 1.13019C5.97986 0.790311 6.05737 0.492175 6.30781 0.265591C6.7729 -0.157763 7.44073 -0.0683224 7.8283 0.486212C8.3411 1.23155 8.82408 2.00075 9.35476 2.7282C10.6129 4.45143 12.2348 5.79304 13.9043 7.08696C15.5977 8.39876 16.2715 10.1578 15.7647 12.2447C15.2758 14.2721 13.9103 15.4944 11.877 15.9595C11.5908 16.0251 11.2867 16.037 10.9886 16.043C10.4042 16.0489 9.96296 15.6196 9.95104 15.0651C9.94508 14.5106 10.3744 14.0812 10.9587 14.0574C12.36 13.9978 13.4512 13.163 13.8149 11.8571C14.1488 10.6646 13.7314 9.43031 12.7237 8.68497C11.1436 7.51031 9.64694 6.24621 8.35899 4.7436C8.2457 4.61242 8.1324 4.48124 7.96545 4.28447C7.96545 4.48124 7.96545 4.6005 7.96545 4.71379C7.96545 9.80596 7.96545 14.8981 7.96545 19.9844C7.96545 22.2383 6.17663 24.0092 3.91675 23.9973C1.93712 23.9853 0.255634 22.435 0.023087 20.4077C-0.191571 18.5414 1.11427 16.6571 2.95675 16.1742C4.00023 15.8999 4.98408 16.0489 5.97986 16.5856Z" fill="#3585FF"/>
</svg>
