<svg width="52" height="52" viewBox="0 0 52 52" fill="none" xmlns="http://www.w3.org/2000/svg">
<circle opacity="0.2" cx="26" cy="26" r="26" fill="#6F4A8A"/>
<g clip-path="url(#clip0_274_289)">
<path d="M38.2433 26.7701V34.9601C38.2433 35.7301 37.6133 36.4068 36.7967 36.4068H15.4467C14.6533 36.4068 14 35.7301 14 34.9601V26.7701C14 23.3634 15.0733 17.2734 15.33 16.2468C15.4933 15.4068 16.17 14.2401 17.29 13.6568C18.4567 13.0501 22.4933 12.0234 26.1333 12.0234C29.7733 12.0234 33.81 13.0734 34.9767 13.6568C36.0967 14.2634 36.7733 15.4068 36.9367 16.2468C37.17 17.2968 38.2667 23.3634 38.2667 26.7701H38.2433ZM37.24 34.6801V33.0701H15.0033V34.6801C15.0033 35.0068 15.33 35.4034 15.68 35.4034H36.61C36.96 35.4034 37.24 35.0068 37.24 34.6801ZM15.05 26.7701V28.8001H37.24V26.7701C37.24 23.5268 36.2367 17.6001 35.9567 16.4568C35.84 15.8268 35.35 15.0101 34.51 14.5668C33.46 14.0768 29.6333 13.0501 26.11 13.0034C22.5867 13.0034 18.76 14.0068 17.71 14.5201C16.87 14.9634 16.4733 15.8501 16.3567 16.4801C16.0767 17.6468 15.0267 23.5268 15.0267 26.7701H15.05ZM36.89 38.1334V39.3001C36.89 39.6968 36.5633 40.0234 36.2133 40.0234H16.2867C15.9367 40.0234 15.61 39.6968 15.61 39.3001V38.1334C15.61 37.7834 15.9367 37.4101 16.2867 37.4101H36.19C36.54 37.4101 36.8667 37.7601 36.8667 38.1334H36.89ZM17.01 25.8834C17.01 23.5268 17.78 18.3934 18.13 17.2501C18.2933 16.7368 18.69 16.3401 19.4133 16.0134C20.2067 15.6634 23.17 14.9634 26.18 14.9634C29.19 14.9634 32.1767 15.5701 32.9 16.0134C33.67 16.4568 34.0667 16.7368 34.1367 17.2501C34.3467 18.3701 35.3267 23.5268 35.3267 25.9301C35.3267 26.5368 34.9767 26.8634 34.44 26.8634H17.9667C17.3367 26.8634 17.01 26.5834 17.01 25.9068V25.8834ZM20.7667 30.2468H19.25C18.9 30.2468 18.5733 30.5268 18.5733 30.8768C18.5733 31.2734 18.9 31.6001 19.25 31.6001H20.7667C21.1167 31.6001 21.49 31.2734 21.49 30.8768C21.49 30.5268 21.14 30.2468 20.7667 30.2468ZM19.6467 25.1601H22.8433C23.24 25.1601 23.52 24.8334 23.52 24.4834V18.6501C23.52 18.3001 23.24 17.9734 22.8433 17.9734H20.2767C19.8333 17.9734 19.5067 18.3001 19.4833 18.6501L18.9933 24.4834C18.9467 24.8801 19.2267 25.1601 19.6233 25.1601H19.6467ZM28.77 24.4834C28.77 24.8334 29.05 25.1601 29.4467 25.1601H32.69C33.04 25.1601 33.2967 24.8801 33.25 24.4834L32.8533 18.6501C32.8067 18.3001 32.4567 17.9734 32.06 17.9734H29.47C29.0733 17.9734 28.7933 18.3001 28.7933 18.6501V24.4834H28.77ZM33.74 30.2468H32.1767C31.8267 30.2468 31.5467 30.5268 31.5467 30.8768C31.5467 31.2734 31.8267 31.6001 32.1767 31.6001H33.74C34.09 31.6001 34.4167 31.2734 34.4167 30.8768C34.4167 30.5268 34.09 30.2468 33.74 30.2468Z" fill="#6F4A8A"/>
</g>
<defs>
<clipPath id="clip0_274_289">
<rect width="24.2433" height="28" fill="white" transform="translate(14 12)"/>
</clipPath>
</defs>
</svg>
