<svg width="32" height="32" viewBox="0 0 32 32" fill="none" xmlns="http://www.w3.org/2000/svg">
<path d="M27 9.25757C27 6.90751 25.0929 5 22.7434 5C21.7924 5 20.9228 5.31538 20.2108 5.83931C18.914 5.30012 17.4901 5 16 5C9.93296 5 5 9.9341 5 16.0025C5 18.4136 5.78317 20.6467 7.10032 22.4576C5.92557 22.5491 5 23.5207 5 24.7212C5 25.9827 6.02219 27 7.27832 27C8.53444 27 9.44984 26.0742 9.54138 24.8992C11.3569 26.2217 13.5844 27 15.9949 27C22.062 27 26.9949 22.0659 26.9949 15.9975C26.9949 14.5071 26.6949 13.0828 26.1558 11.7857C26.6796 11.0786 26.9949 10.2037 26.9949 9.25249L27 9.25757ZM25.2302 15.9975C25.2302 21.0842 21.0906 25.2298 16 25.2298C10.9094 25.2298 6.76976 21.0892 6.76976 16.0025C6.76976 10.9158 10.9094 6.77017 16 6.77017C17.0425 6.77017 18.0393 6.95329 18.975 7.27376C18.6597 7.8689 18.4817 8.54035 18.4817 9.26266C18.4817 11.6127 20.3888 13.5202 22.7383 13.5202C23.4554 13.5202 24.1318 13.3422 24.7268 13.0268C25.0472 13.9628 25.2302 14.9598 25.2302 16.0025V15.9975Z" fill="#E9545D"/>
</svg>
