<?xml version="1.0" encoding="UTF-8"?>
<svg id="website" xmlns="http://www.w3.org/2000/svg" viewBox="0 0 128 128">
  <defs>
    <style>
      .cls-1 {
        fill: #fff;
      }
    </style>
  </defs>
  <path class="cls-1" d="M128,82.91c-.02-6.65-5.25-12.73-13.98-17.52,1.4,2.07,2.15,4.26,2.16,6.53,.05,12.13-21.15,22.13-48.1,23.15l-8.27,.03c-26.87-.84-48.04-10.66-48.09-22.76,0-2.27,.73-4.47,2.11-6.55C5.15,70.66-.03,76.79,0,83.43c.04,9.02,9.02,15.13,16.24,18.68,12.4,6.09,26.67,8.48,40.36,9.11,15.41,.71,31.3-.69,45.99-5.65,8.98-3.03,20.62-8.11,24.42-17.61,.64-1.61,1.01-3.32,1-5.06Z"/>
  <path class="cls-1" d="M33.03,49.41c1.84,4.6,2.81,9.2,2.35,14.01-.23,2.4-.81,4.87-1.77,7.35-.47,1.24-1.03,2.49-1.67,3.73-.32,.62-.66,1.25-1.03,1.87,0,0,0,.01-.02,.02-.36,.64,.3,1.37,.96,1.06,0,0,.01,0,.01,0,.68-.33,1.36-.71,2.01-1.12,1.3-.83,2.52-1.82,3.63-2.93,1.11-1.12,2.12-2.37,3-3.73,.88-1.36,1.61-2.85,2.2-4.4,.58-1.56,.99-3.19,1.24-4.85,.04-.21,.06-.41,.08-.62,.03-.21,.05-.42,.07-.63,.04-.42,.07-.83,.09-1.25,.03-.84,.05-1.67,0-2.51-.04-.83-.12-1.66-.23-2.48-.12-.81-.26-1.63-.45-2.43-.17-.81-.39-1.59-.63-2.37-.12-.39-.25-.77-.38-1.16-.14-.38-.28-.75-.42-1.13-1.8-4.69-2.91-9.4-2.88-14.35,.01-2.47,.3-5.01,.9-7.61,.3-1.3,.67-2.61,1.13-3.94,.23-.67,.47-1.34,.74-2.01v-.02c.28-.7-.5-1.35-1.14-.95h-.01c-.64,.43-1.26,.89-1.85,1.39-1.18,1-2.26,2.14-3.22,3.38-.96,1.25-1.8,2.61-2.51,4.05-.71,1.44-1.28,2.97-1.7,4.54-.85,3.15-1.1,6.48-.8,9.73,.29,3.25,1.12,6.41,2.29,9.36Z"/>
  <path class="cls-1" d="M85.8,49.19c1.84,4.59,2.81,9.2,2.35,14.01-.23,2.4-.81,4.87-1.76,7.35-.47,1.24-1.04,2.49-1.68,3.73-.32,.62-.66,1.25-1.03,1.87,0,0-.01,.01-.01,.02-.37,.64,.29,1.37,.96,1.06,0,0,.01,0,.02,0,.68-.33,1.36-.71,2.01-1.12,1.29-.83,2.51-1.82,3.63-2.93,1.11-1.12,2.12-2.37,3-3.73,.88-1.36,1.62-2.85,2.2-4.4,.58-1.56,.99-3.19,1.24-4.85,.03-.2,.06-.41,.08-.62,.03-.21,.05-.41,.07-.62,.04-.42,.07-.84,.09-1.25,.03-.84,.05-1.67,0-2.51-.04-.83-.12-1.66-.23-2.48-.12-.82-.26-1.63-.44-2.43-.17-.8-.39-1.59-.63-2.37-.12-.39-.24-.77-.38-1.16-.14-.38-.28-.76-.42-1.13-1.81-4.69-2.91-9.4-2.88-14.35,0-2.47,.3-5.01,.89-7.61,.31-1.3,.68-2.62,1.13-3.94,.23-.67,.47-1.34,.74-2.01v-.03c.28-.7-.5-1.35-1.13-.95h-.02c-.64,.44-1.26,.89-1.85,1.39-1.18,1-2.26,2.14-3.22,3.38-.96,1.25-1.81,2.61-2.51,4.05-.7,1.44-1.28,2.97-1.7,4.54-.85,3.15-1.1,6.48-.8,9.73,.29,3.25,1.12,6.41,2.29,9.36Z"/>
  <path class="cls-1" d="M61.58,49.29c1.83,4.6,2.81,9.2,2.35,14.01-.23,2.4-.82,4.87-1.77,7.35-.47,1.24-1.04,2.49-1.68,3.73-.32,.62-.66,1.25-1.03,1.87,0,0,0,.01-.01,.02-.37,.64,.29,1.37,.96,1.06,0,0,.01,0,.02-.01,.69-.33,1.36-.71,2.01-1.12,1.29-.83,2.51-1.81,3.62-2.93,1.12-1.12,2.13-2.37,3.01-3.73,.88-1.36,1.62-2.84,2.2-4.4,.58-1.56,.99-3.19,1.24-4.85,.03-.21,.06-.41,.09-.62,.03-.21,.05-.41,.06-.62,.05-.42,.08-.84,.09-1.25,.03-.84,.04-1.67,0-2.51-.04-.83-.12-1.66-.23-2.48-.12-.82-.26-1.63-.44-2.43-.17-.81-.4-1.59-.63-2.37-.11-.39-.24-.77-.38-1.16-.13-.38-.28-.75-.42-1.13-1.81-4.69-2.91-9.4-2.88-14.35,0-2.47,.3-5.01,.9-7.61,.3-1.3,.67-2.62,1.13-3.95,.23-.66,.46-1.34,.74-2.01v-.03c.28-.7-.5-1.34-1.13-.94h-.02c-.63,.43-1.26,.89-1.84,1.39-1.18,1-2.26,2.14-3.22,3.38-.96,1.25-1.8,2.61-2.51,4.05-.71,1.44-1.28,2.97-1.7,4.54-.85,3.15-1.1,6.48-.8,9.73,.29,3.25,1.12,6.41,2.3,9.36Z"/>
</svg>