<svg width="21" height="24" viewBox="0 0 21 24" fill="none" xmlns="http://www.w3.org/2000/svg">
<g clip-path="url(#clip0_20_161)">
<path d="M19.0582 13.4072V5.83376C15.3241 6.88639 11.6067 7.93902 7.8615 8.99719C7.8615 9.11907 7.8615 9.24096 7.8615 9.36284C7.8615 12.9972 7.8615 16.626 7.8615 20.2603C7.8615 22.3601 6.20499 24.011 4.11081 24C2.26594 23.9889 0.714688 22.5706 0.482002 20.6759C0.271475 18.9473 1.48477 17.1856 3.19668 16.7368C4.07757 16.5041 4.91967 16.5872 5.73962 16.975C5.81718 17.0138 5.90028 17.0471 6.01109 17.0969V16.7036C6.01109 12.7423 6.01109 8.78112 6.01109 4.81991C6.01109 4.09968 6.19945 3.85038 6.88643 3.65647C11.1136 2.45979 15.3352 1.26312 19.5568 0.0664424C20.2216 -0.121923 20.7313 0.105224 20.8864 0.670321C20.9141 0.775584 20.9197 0.891927 20.9197 1.00273C20.9197 6.21603 20.9197 11.4293 20.9197 16.6426C20.9197 18.5429 19.3906 20.1662 17.4959 20.2991C15.5956 20.4321 13.8726 19.0748 13.59 17.2077C13.3684 15.7617 13.8449 14.5651 14.9972 13.6842C16.1718 12.7867 17.4682 12.6703 18.82 13.2908C18.892 13.3241 18.964 13.3628 19.0693 13.4127L19.0582 13.4072Z" fill="#109D91"/>
</g>
<defs>
<clipPath id="clip0_20_161">
<rect width="20.4598" height="24" fill="white" transform="translate(0.459839)"/>
</clipPath>
</defs>
</svg>
