<svg width="52" height="52" viewBox="0 0 52 52" fill="none" xmlns="http://www.w3.org/2000/svg">
<circle opacity="0.2" cx="26" cy="26" r="26" fill="#6F4A8A"/>
<path fill-rule="evenodd" clip-rule="evenodd" d="M36.0613 23H39.75C40.2141 23 40.6592 23.1844 40.9874 23.5126C41.3156 23.8408 41.5 24.2859 41.5 24.75V29.75C41.5 30.2141 41.3156 30.6593 40.9874 30.9874C40.6592 31.3156 40.2141 31.5 39.75 31.5H37.425C37.2529 32.3477 36.793 33.1099 36.1232 33.6573C35.4534 34.2047 34.615 34.5038 33.75 34.5038C32.885 34.5038 32.0466 34.2047 31.3768 33.6573C30.707 33.1099 30.2471 32.3477 30.075 31.5H21.425C21.2529 32.3477 20.793 33.1099 20.1232 33.6573C19.4534 34.2047 18.615 34.5038 17.75 34.5038C16.885 34.5038 16.0466 34.2047 15.3768 33.6573C14.707 33.1099 14.2471 32.3477 14.075 31.5H11.75C11.2859 31.5 10.8408 31.3156 10.5126 30.9874C10.1844 30.6593 10 30.2141 10 29.75V23.75C9.99967 23.602 10.0432 23.4571 10.125 23.3338L13.8288 17.7788C13.9886 17.5391 14.2052 17.3427 14.4592 17.2068C14.7133 17.071 14.9969 16.9999 15.285 17H29.3363C29.5661 16.9996 29.7938 17.0446 30.0062 17.1326C30.2186 17.2206 30.4115 17.3497 30.5738 17.5125L36.0613 23ZM15.1673 18.5297C15.1311 18.5491 15.1003 18.5771 15.0775 18.6113L12.1513 23H23V18.5H15.285C15.2439 18.5001 15.2035 18.5103 15.1673 18.5297ZM39.9268 29.9268C39.9737 29.8799 40 29.8163 40 29.75V24.75C40 24.6837 39.9737 24.6201 39.9268 24.5732C39.8799 24.5263 39.8163 24.5 39.75 24.5H11.5V29.75C11.5 29.8163 11.5263 29.8799 11.5732 29.9268C11.6201 29.9737 11.6837 30 11.75 30H14.075C14.2471 29.1523 14.707 28.3901 15.3768 27.8427C16.0466 27.2953 16.885 26.9962 17.75 26.9962C18.615 26.9962 19.4534 27.2953 20.1232 27.8427C20.793 28.3901 21.2529 29.1523 21.425 30H30.075C30.2471 29.1523 30.707 28.3901 31.3768 27.8427C32.0466 27.2953 32.885 26.9962 33.75 26.9962C34.615 26.9962 35.4534 27.2953 36.1232 27.8427C36.793 28.3901 37.2529 29.1523 37.425 30H39.75C39.8163 30 39.8799 29.9737 39.9268 29.9268Z" fill="#6F4A8A"/>
</svg>
