<svg width="52" height="52" viewBox="0 0 52 52" fill="none" xmlns="http://www.w3.org/2000/svg">
<circle opacity="0.2" cx="26" cy="26" r="26" fill="#6F4A8A"/>
<path fill-rule="evenodd" clip-rule="evenodd" d="M34.625 16.625L40.3188 23.2613C40.4357 23.3973 40.5 23.5707 40.5 23.75V31.75C40.5 32.2141 40.3156 32.6592 39.9874 32.9874C39.6592 33.3156 39.2141 33.5 38.75 33.5H36.425C36.2529 34.3477 35.793 35.1099 35.1232 35.6573C34.4534 36.2047 33.615 36.5038 32.75 36.5038C31.885 36.5038 31.0466 36.2047 30.3768 35.6573C29.707 35.1099 29.2471 34.3477 29.075 33.5H22.425C22.2529 34.3477 21.793 35.1099 21.1232 35.6573C20.4534 36.2047 19.615 36.5038 18.75 36.5038C17.885 36.5038 17.0466 36.2047 16.3768 35.6573C15.707 35.1099 15.2471 34.3477 15.075 33.5H12.75C12.2859 33.5 11.8408 33.3156 11.5126 32.9874C11.1844 32.6592 11 32.2141 11 31.75V17.75C11 17.2859 11.1844 16.8408 11.5126 16.5126C11.8408 16.1844 12.2859 16 12.75 16H33.2825C33.5384 15.9997 33.7912 16.0555 34.0231 16.1635C34.2551 16.2715 34.4605 16.429 34.625 16.625ZM38.1175 23L33.4813 17.5963C33.4577 17.5661 33.4275 17.5417 33.3931 17.525C33.3586 17.5083 33.3208 17.4998 33.2825 17.5H30.5V23H38.1175ZM20 17.5H12.75C12.6837 17.5 12.6201 17.5263 12.5732 17.5732C12.5263 17.6201 12.5 17.6837 12.5 17.75V23H20V17.5ZM36.425 32H38.75C38.8163 32 38.8799 31.9737 38.9268 31.9268C38.9737 31.8799 39 31.8163 39 31.75V24.5H12.5V31.75C12.5 31.8163 12.5263 31.8799 12.5732 31.9268C12.6201 31.9737 12.6837 32 12.75 32H15.075C15.2471 31.1523 15.707 30.3901 16.3768 29.8427C17.0466 29.2953 17.885 28.9962 18.75 28.9962C19.615 28.9962 20.4534 29.2953 21.1232 29.8427C21.793 30.3901 22.2529 31.1523 22.425 32H29.075C29.2471 31.1523 29.707 30.3901 30.3768 29.8427C31.0466 29.2953 31.885 28.9962 32.75 28.9962C33.615 28.9962 34.4534 29.2953 35.1232 29.8427C35.793 30.3901 36.2529 31.1523 36.425 32Z" fill="#6F4A8A"/>
</svg>
