<?xml version="1.0" encoding="utf-8"?>
<!-- Generator: Adobe Illustrator 27.0.0, SVG Export Plug-In . SVG Version: 6.00 Build 0)  -->
<svg version="1.1" id="圖層_1" xmlns="http://www.w3.org/2000/svg" xmlns:xlink="http://www.w3.org/1999/xlink" x="0px" y="0px"
	 viewBox="0 0 32 32" style="enable-background:new 0 0 32 32;" xml:space="preserve">
<style type="text/css">
	.st0{fill:#FFFFFF;}
</style>
<path class="st0" d="M2.6,10.5l3.5,3L5,17.9c-0.1,0.3-0.1,0.7,0.1,1c0.1,0.3,0.3,0.6,0.6,0.8C5.9,19.9,6.3,20,6.6,20
	c0.3,0,0.7-0.1,1-0.2l4-2.4l4,2.4c0.3,0.2,0.6,0.3,1,0.2c0.3,0,0.7-0.1,0.9-0.3c0.3-0.2,0.5-0.5,0.6-0.8s0.1-0.6,0.1-1l-1.1-4.4
	l3.5-3c0.3-0.2,0.4-0.5,0.5-0.8s0.1-0.7,0-1s-0.3-0.6-0.6-0.8c-0.3-0.2-0.6-0.3-0.9-0.4L15,7.1L13.1,3c-0.1-0.3-0.3-0.6-0.6-0.7
	c-0.3-0.2-0.7-0.3-1-0.3s-0.7,0.1-0.9,0.3C10.3,2.5,10.1,2.7,9.9,3L8.2,7.2L3.6,7.6c-0.4,0-0.7,0.1-1,0.4C2.4,8.2,2.2,8.4,2.1,8.8
	C2,9.1,2,9.4,2.1,9.7C2.2,10,2.3,10.3,2.6,10.5z M21,14c0.1-0.1,0.2-0.2,0.3-0.2c0.1-0.1,0.3-0.1,0.4-0.1s0.3,0,0.4,0.1
	s0.2,0.1,0.3,0.2l7.3,7.3c0.2,0.2,0.3,0.4,0.3,0.7c0,0.3-0.1,0.5-0.3,0.7C29.5,22.9,29.3,23,29,23s-0.5-0.1-0.7-0.3L21,15.4
	c-0.1-0.1-0.2-0.2-0.2-0.3s-0.1-0.3-0.1-0.4s0-0.3,0.1-0.4S20.9,14.1,21,14z M21,21.6l6.7,6.7c0.1,0.1,0.2,0.2,0.2,0.3
	C28,28.7,28,28.9,28,29s0,0.3-0.1,0.4s-0.1,0.2-0.2,0.3C27.5,29.9,27.3,30,27,30c-0.1,0-0.3,0-0.4-0.1s-0.2-0.1-0.3-0.2L19.6,23
	c-0.2-0.2-0.3-0.4-0.3-0.7c0-0.3,0.1-0.5,0.3-0.7c0.2-0.2,0.4-0.3,0.7-0.3C20.6,21.4,20.9,21.5,21,21.6z M11.9,21.5l6.8,6.8
	c0.1,0.1,0.2,0.2,0.2,0.3C19,28.7,19,28.9,19,29s0,0.3-0.1,0.4s-0.1,0.2-0.2,0.3C18.5,29.9,18.3,30,18,30c-0.1,0-0.3,0-0.4-0.1
	s-0.2-0.1-0.3-0.2l-6.8-6.8c-0.2-0.2-0.3-0.4-0.3-0.7c0-0.3,0.1-0.5,0.3-0.7s0.4-0.3,0.7-0.3C11.5,21.2,11.7,21.3,11.9,21.5z"/>
</svg>
