<svg width="22" height="22" viewBox="0 0 22 22" fill="none" xmlns="http://www.w3.org/2000/svg">
<path d="M22 4.25757C22 1.90751 20.0929 0 17.7434 0C16.7924 0 15.9228 0.315376 15.2108 0.839306C13.914 0.300116 12.4901 0 11 0C4.93296 0 0 4.9341 0 11.0025C0 13.4136 0.783172 15.6467 2.10032 17.4576C0.925566 17.5491 0 18.5207 0 19.7212C0 20.9827 1.02219 22 2.27832 22C3.53444 22 4.44984 21.0742 4.54138 19.8992C6.35691 21.2217 8.58437 22 10.9949 22C17.062 22 21.9949 17.0659 21.9949 10.9975C21.9949 9.50705 21.6949 8.08277 21.1558 6.78566C21.6796 6.07861 21.9949 5.2037 21.9949 4.25249L22 4.25757ZM20.2302 10.9975C20.2302 16.0842 16.0906 20.2298 11 20.2298C5.90938 20.2298 1.76976 16.0892 1.76976 11.0025C1.76976 5.91584 5.90938 1.77017 11 1.77017C12.0425 1.77017 13.0393 1.95329 13.975 2.27376C13.6597 2.8689 13.4817 3.54035 13.4817 4.26266C13.4817 6.61272 15.3888 8.52023 17.7383 8.52023C18.4554 8.52023 19.1318 8.3422 19.7268 8.02682C20.0472 8.96277 20.2302 9.95977 20.2302 11.0025V10.9975Z" fill="#E9545D"/>
</svg>
