<svg width="28" height="28" viewBox="0 0 28 28" fill="none" xmlns="http://www.w3.org/2000/svg">
<path d="M0.594999 8.54762L4.1025 11.5076L3.0325 15.9314C2.95488 16.2516 2.97389 16.5877 3.08713 16.8972C3.20037 17.2066 3.40276 17.4756 3.66875 17.6701C3.9379 17.8679 4.25955 17.9816 4.5932 17.997C4.92685 18.0123 5.25758 17.9286 5.54375 17.7564L9.5 15.3751L13.4563 17.7576C13.7423 17.9303 14.0731 18.0143 14.4068 17.999C14.7406 17.9836 15.0623 17.8696 15.3313 17.6714C15.5977 17.4772 15.8006 17.2083 15.914 16.8988C16.0275 16.5893 16.0466 16.253 15.9688 15.9326L14.8988 11.5089L18.405 8.54762C18.6589 8.33299 18.8432 8.0476 18.9342 7.72784C19.0253 7.40808 19.0191 7.06844 18.9164 6.75223C18.8137 6.43602 18.6191 6.15756 18.3575 5.95237C18.0959 5.74718 17.7791 5.62455 17.4475 5.60012L12.83 5.23512L11.0537 1.02762C10.924 0.722929 10.7075 0.463108 10.4313 0.280483C10.155 0.0978576 9.83117 0.000488281 9.5 0.000488281C9.16883 0.000488281 8.84498 0.0978576 8.56872 0.280483C8.29246 0.463108 8.07599 0.722929 7.94625 1.02762L6.17 5.23512L1.5525 5.60012C1.22092 5.62455 0.904131 5.74718 0.642523 5.95237C0.380915 6.15756 0.186346 6.43602 0.0836239 6.75223C-0.0190983 7.06844 -0.0253162 7.40808 0.0657597 7.72784C0.156836 8.0476 0.34108 8.33299 0.594999 8.54762ZM18.9863 11.9864C19.0791 11.8934 19.1894 11.8196 19.3108 11.7693C19.4322 11.719 19.5623 11.6931 19.6938 11.6931C19.8252 11.6931 19.9553 11.719 20.0767 11.7693C20.1981 11.8196 20.3084 11.8934 20.4013 11.9864L27.7075 19.2926C27.8951 19.4803 28.0006 19.7348 28.0006 20.0001C28.0006 20.2655 27.8951 20.52 27.7075 20.7076C27.5199 20.8953 27.2654 21.0007 27 21.0007C26.7346 21.0007 26.4801 20.8953 26.2925 20.7076L18.9863 13.4014C18.8933 13.3085 18.8195 13.1982 18.7692 13.0768C18.7189 12.9554 18.693 12.8253 18.693 12.6939C18.693 12.5625 18.7189 12.4323 18.7692 12.3109C18.8195 12.1895 18.8933 12.0792 18.9863 11.9864ZM19.0488 19.6351L25.7075 26.2926C25.8004 26.3855 25.8741 26.4958 25.9244 26.6172C25.9747 26.7386 26.0006 26.8687 26.0006 27.0001C26.0006 27.1315 25.9747 27.2616 25.9244 27.383C25.8741 27.5044 25.8004 27.6147 25.7075 27.7076C25.5199 27.8953 25.2654 28.0007 25 28.0007C24.8686 28.0007 24.7385 27.9748 24.6171 27.9245C24.4957 27.8742 24.3854 27.8005 24.2925 27.7076L17.635 21.0489C17.4554 20.8598 17.3567 20.6081 17.3601 20.3473C17.3634 20.0865 17.4685 19.8374 17.6529 19.653C17.8373 19.4686 18.0864 19.3635 18.3472 19.3602C18.6079 19.3568 18.8597 19.4555 19.0488 19.6351ZM9.92375 19.5101L16.71 26.2951C16.8029 26.388 16.8766 26.4983 16.9269 26.6197C16.9772 26.7411 17.0031 26.8712 17.0031 27.0026C17.0031 27.134 16.9772 27.2641 16.9269 27.3855C16.8766 27.5069 16.8029 27.6172 16.71 27.7101C16.5224 27.8978 16.2679 28.0032 16.0025 28.0032C15.8711 28.0032 15.741 27.9773 15.6196 27.927C15.4982 27.8767 15.3879 27.803 15.295 27.7101L8.51 20.9251C8.32236 20.7376 8.21688 20.4833 8.21676 20.2181C8.21664 19.9528 8.3219 19.6984 8.50937 19.5107C8.69685 19.3231 8.95119 19.2176 9.21643 19.2175C9.48168 19.2174 9.73611 19.3226 9.92375 19.5101Z" fill="white"/>
</svg>
