<svg width="32" height="32" viewBox="0 0 32 32" fill="none" xmlns="http://www.w3.org/2000/svg">
<path d="M18.0637 6.57875C18.2986 6.3445 18.5887 6.17318 18.9072 6.0806C19.2258 5.98802 19.5625 5.97716 19.8863 6.04903C20.2102 6.12089 20.5107 6.27317 20.7602 6.49181C21.0096 6.71044 21.2 6.98839 21.3137 7.3L27.875 25.3475C27.9828 25.6451 28.0176 25.9642 27.9765 26.2781C27.9354 26.5919 27.8197 26.8914 27.6389 27.1512C27.4582 27.4111 27.2177 27.6238 26.9378 27.7715C26.6578 27.9191 26.3465 27.9975 26.03 28C25.797 27.9984 25.566 27.9561 25.3475 27.875L7.30125 21.3125C6.98954 21.1989 6.71147 21.0086 6.4927 20.7592C6.27393 20.5098 6.12151 20.2093 6.04951 19.8855C5.97752 19.5616 5.98827 19.2248 6.08076 18.9062C6.17326 18.5876 6.34452 18.2975 6.57875 18.0625L18.0637 6.57875ZM23.8575 20.1413L21.4575 13.5425L13.5425 21.4575L20.1425 23.8575L23.8575 20.1413ZM12 9C11.9812 8.32396 11.8175 7.65983 11.52 7.0525C10.8575 5.72875 9.6075 5 8 5C7.1625 5 6.625 4.71375 6.29375 4.09875C6.11933 3.75468 6.01924 3.37777 6 2.9925C5.999 2.72728 5.89269 2.47332 5.70445 2.28649C5.51621 2.09966 5.26147 1.99526 4.99625 1.99625C4.73103 1.99724 4.47707 2.10356 4.29024 2.29179C4.10341 2.48003 3.999 2.73478 4 3C4 4.6075 5.065 7 8 7C8.8375 7 9.375 7.28625 9.70625 7.90125C9.88067 8.24532 9.98075 8.62223 10 9.0075C10.0005 9.13882 10.0268 9.26876 10.0776 9.3899C10.1283 9.51103 10.2023 9.621 10.2955 9.71351C10.3888 9.80602 10.4993 9.87926 10.6208 9.92906C10.7423 9.97886 10.8724 10.0042 11.0037 10.0037C11.1351 10.0033 11.265 9.9769 11.3861 9.92619C11.5073 9.87548 11.6172 9.80141 11.7098 9.70821C11.8023 9.615 11.8755 9.50448 11.9253 9.38297C11.9751 9.26145 12.0005 9.13132 12 9ZM15 5V2C15 1.73478 14.8946 1.48043 14.7071 1.29289C14.5196 1.10536 14.2652 1 14 1C13.7348 1 13.4804 1.10536 13.2929 1.29289C13.1054 1.48043 13 1.73478 13 2V5C13 5.26522 13.1054 5.51957 13.2929 5.70711C13.4804 5.89464 13.7348 6 14 6C14.2652 6 14.5196 5.89464 14.7071 5.70711C14.8946 5.51957 15 5.26522 15 5ZM2.2925 15.2925C2.19967 15.3854 2.12605 15.4957 2.07584 15.6171C2.02564 15.7384 1.99983 15.8685 1.99988 15.9998C1.99994 16.1312 2.02587 16.2612 2.07618 16.3825C2.1265 16.5038 2.20021 16.614 2.29312 16.7069C2.38603 16.7997 2.49632 16.8733 2.61768 16.9235C2.73904 16.9737 2.8691 16.9995 3.00044 16.9995C3.13178 16.9994 3.26182 16.9735 3.38313 16.9232C3.50445 16.8729 3.61467 16.7992 3.7075 16.7062L5.7075 14.7063C5.89514 14.5186 6.00056 14.2641 6.00056 13.9987C6.00056 13.7334 5.89514 13.4789 5.7075 13.2913C5.51986 13.1036 5.26536 12.9982 5 12.9982C4.73463 12.9982 4.48014 13.1036 4.2925 13.2913L2.2925 15.2925ZM1.68375 9.94875L4.68375 10.9487C4.93537 11.0326 5.21001 11.0131 5.44724 10.8945C5.68448 10.7759 5.86487 10.5679 5.94875 10.3162C6.03262 10.0646 6.0131 9.78999 5.89449 9.55276C5.77587 9.31552 5.56787 9.13513 5.31625 9.05125L2.31625 8.05125C2.06462 7.96738 1.78999 7.98689 1.55275 8.10551C1.31552 8.22413 1.13512 8.43213 1.05125 8.68375C0.967373 8.93537 0.986893 9.21001 1.10551 9.44724C1.22412 9.68448 1.43212 9.86487 1.68375 9.94875Z" fill="white"/>
</svg>
